<?xml version="1.0" encoding="utf-8"?>
<svg viewBox="0 0 410 350" xmlns="http://www.w3.org/2000/svg" xmlns:bx="https://boxy-svg.com">
  <defs>
    <bx:grid x="0" y="0" width="10" height="10"/>
  </defs>
  <path d="M 48.567 254.128 L 53.567 257.015 L 53.567 262.789 L 48.567 265.676 L 43.567 262.789 L 43.567 257.015 Z" style="fill: rgb(216, 216, 216);" bx:shape="n-gon 48.567 259.902 5.774 5.774 6 0 1@b30cb730"/>
  <path d="M 61.067 254.128 L 66.067 257.015 L 66.067 262.789 L 61.067 265.676 L 56.067 262.789 L 56.067 257.015 Z" style="fill: rgb(216, 216, 216);" bx:shape="n-gon 61.067 259.902 5.774 5.774 6 0 1@34fdc282"/>
  <path d="M 36.067 254.128 L 41.067 257.015 L 41.067 262.789 L 36.067 265.676 L 31.067 262.789 L 31.067 257.015 Z" style="fill: rgb(216, 216, 216);" bx:shape="n-gon 36.067 259.902 5.774 5.774 6 0 1@b40d57ae"/>
  <path d="M 48.567 254.128 L 53.567 257.015 L 53.567 262.789 L 48.567 265.676 L 43.567 262.789 L 43.567 257.015 Z" style="fill: rgb(216, 216, 216);" bx:shape="n-gon 48.567 259.902 5.774 5.774 6 0 1@b30cb730"/>
  <path d="M 98.567 254.128 L 103.567 257.015 L 103.567 262.789 L 98.567 265.676 L 93.567 262.789 L 93.567 257.015 Z" style="fill: rgb(216, 216, 216);" bx:shape="n-gon 98.567 259.902 5.774 5.774 6 0 1@c1883649"/>
  <path d="M 86.067 254.128 L 91.067 257.015 L 91.067 262.789 L 86.067 265.676 L 81.067 262.789 L 81.067 257.015 Z" style="fill: rgb(255, 255, 0);" bx:shape="n-gon 86.067 259.902 5.774 5.774 6 0 1@57b90727"/>
  <path d="M 98.567 254.128 L 103.567 257.015 L 103.567 262.789 L 98.567 265.676 L 93.567 262.789 L 93.567 257.015 Z" style="fill: rgb(216, 216, 216);" bx:shape="n-gon 98.567 259.902 5.774 5.774 6 0 1@c1883649"/>
  <path d="M 73.567 254.128 L 78.567 257.015 L 78.567 262.789 L 73.567 265.676 L 68.567 262.789 L 68.567 257.015 Z" style="fill: rgb(216, 216, 216);" bx:shape="n-gon 73.567 259.902 5.774 5.774 6 0 1@5bbc699e"/>
  <path d="M 67.317 243.303 L 72.317 246.19 L 72.317 251.964 L 67.317 254.851 L 62.317 251.964 L 62.317 246.19 Z" style="fill: rgb(216, 216, 216);" bx:shape="n-gon 67.317 249.077 5.774 5.774 6 0 1@19192058"/>
  <path d="M 92.317 243.303 L 97.317 246.19 L 97.317 251.964 L 92.317 254.851 L 87.317 251.964 L 87.317 246.19 Z" style="fill: rgb(216, 216, 216);" bx:shape="n-gon 92.317 249.077 5.774 5.774 6 0 1@2e2c07b2"/>
  <path d="M 104.817 243.303 L 109.817 246.19 L 109.817 251.964 L 104.817 254.851 L 99.817 251.964 L 99.817 246.19 Z" style="fill: rgb(216, 216, 216);" bx:shape="n-gon 104.817 249.077 5.774 5.774 6 0 1@194308f9"/>
  <path d="M 104.817 243.303 L 109.817 246.19 L 109.817 251.964 L 104.817 254.851 L 99.817 251.964 L 99.817 246.19 Z" style="fill: rgb(255, 255, 0);" bx:shape="n-gon 104.817 249.077 5.774 5.774 6 0 1@194308f9"/>
  <path d="M 79.817 243.302 L 84.817 246.189 L 84.817 251.963 L 79.817 254.85 L 74.817 251.963 L 74.817 246.189 Z" style="fill: rgb(216, 216, 216);" bx:shape="n-gon 79.817 249.076 5.774 5.774 6 0 1@9f68b6c5"/>
  <path d="M 148.567 254.128 L 153.567 257.015 L 153.567 262.789 L 148.567 265.676 L 143.567 262.789 L 143.567 257.015 Z" style="fill: rgb(216, 216, 216);" bx:shape="n-gon 148.567 259.902 5.774 5.774 6 0 1@765b289d"/>
  <path d="M 161.067 254.128 L 166.067 257.015 L 166.067 262.789 L 161.067 265.676 L 156.067 262.789 L 156.067 257.015 Z" style="fill: rgb(216, 216, 216);" bx:shape="n-gon 161.067 259.902 5.774 5.774 6 0 1@8b13d89f"/>
  <path d="M 136.067 254.128 L 141.067 257.015 L 141.067 262.789 L 136.067 265.676 L 131.067 262.789 L 131.067 257.015 Z" style="fill: rgb(255, 128, 0);" bx:shape="n-gon 136.067 259.902 5.774 5.774 6 0 1@4e14f8c7"/>
  <path d="M 148.567 254.128 L 153.567 257.015 L 153.567 262.789 L 148.567 265.676 L 143.567 262.789 L 143.567 257.015 Z" style="fill: rgb(216, 216, 216);" bx:shape="n-gon 148.567 259.902 5.774 5.774 6 0 1@765b289d"/>
  <path d="M 123.567 254.128 L 128.567 257.015 L 128.567 262.789 L 123.567 265.676 L 118.567 262.789 L 118.567 257.015 Z" style="fill: rgb(255, 255, 0);" bx:shape="n-gon 123.567 259.902 5.774 5.774 6 0 1@037f427a"/>
  <path d="M 117.317 243.303 L 122.317 246.19 L 122.317 251.964 L 117.317 254.851 L 112.317 251.964 L 112.317 246.19 Z" style="fill: rgb(216, 216, 216);" bx:shape="n-gon 117.317 249.077 5.774 5.774 6 0 1@909d2f08"/>
  <path d="M 111.067 254.128 L 116.067 257.015 L 116.067 262.789 L 111.067 265.676 L 106.067 262.789 L 106.067 257.015 Z" style="fill: rgb(216, 216, 216);" bx:shape="n-gon 111.067 259.902 5.774 5.774 6 0 1@5296c2f8"/>
  <path d="M 198.567 254.128 L 203.567 257.015 L 203.567 262.789 L 198.567 265.676 L 193.567 262.789 L 193.567 257.015 Z" style="fill: rgb(216, 216, 216);" bx:shape="n-gon 198.567 259.902 5.774 5.774 6 0 1@a19b8710"/>
  <path d="M 186.067 254.128 L 191.067 257.015 L 191.067 262.789 L 186.067 265.676 L 181.067 262.789 L 181.067 257.015 Z" style="fill: rgb(255, 128, 0);" bx:shape="n-gon 186.067 259.902 5.774 5.774 6 0 1@fbd86d88"/>
  <path d="M 198.567 254.128 L 203.567 257.015 L 203.567 262.789 L 198.567 265.676 L 193.567 262.789 L 193.567 257.015 Z" style="fill: rgb(216, 216, 216);" bx:shape="n-gon 198.567 259.902 5.774 5.774 6 0 1@a19b8710"/>
  <path d="M 173.567 254.128 L 178.567 257.015 L 178.567 262.789 L 173.567 265.676 L 168.567 262.789 L 168.567 257.015 Z" style="fill: rgb(216, 216, 216);" bx:shape="n-gon 173.567 259.902 5.774 5.774 6 0 1@5d1affef"/>
  <path d="M 142.317 243.303 L 147.317 246.19 L 147.317 251.964 L 142.317 254.851 L 137.317 251.964 L 137.317 246.19 Z" style="fill: rgb(216, 216, 216);" bx:shape="n-gon 142.317 249.077 5.774 5.774 6 0 1@a2b4a1f4"/>
  <path d="M 148.567 232.477 L 153.567 235.364 L 153.567 241.138 L 148.567 244.025 L 143.567 241.138 L 143.567 235.364 Z" style="fill: rgb(216, 216, 216);" bx:shape="n-gon 148.567 238.251 5.774 5.774 6 0 1@71aa5f65"/>
  <path d="M 154.817 243.303 L 159.817 246.19 L 159.817 251.964 L 154.817 254.851 L 149.817 251.964 L 149.817 246.19 Z" style="fill: rgb(216, 216, 216);" bx:shape="n-gon 154.817 249.077 5.774 5.774 6 0 1@aa558772"/>
  <path d="M 161.067 232.477 L 166.067 235.364 L 166.067 241.138 L 161.067 244.025 L 156.067 241.138 L 156.067 235.364 Z" style="fill: rgb(255, 0, 0);" bx:shape="n-gon 161.067 238.251 5.774 5.774 6 0 1@73c57a9b"/>
  <path d="M 136.067 232.477 L 141.067 235.364 L 141.067 241.138 L 136.067 244.025 L 131.067 241.138 L 131.067 235.364 Z" style="fill: rgb(216, 216, 216);" bx:shape="n-gon 136.067 238.251 5.774 5.774 6 0 1@18f9f79f"/>
  <path d="M 148.567 232.477 L 153.567 235.364 L 153.567 241.138 L 148.567 244.025 L 143.567 241.138 L 143.567 235.364 Z" style="fill: rgb(216, 216, 216);" bx:shape="n-gon 148.567 238.251 5.774 5.774 6 0 1@71aa5f65"/>
  <path d="M 154.817 243.303 L 159.817 246.19 L 159.817 251.964 L 154.817 254.851 L 149.817 251.964 L 149.817 246.19 Z" style="fill: rgb(216, 216, 216);" bx:shape="n-gon 154.817 249.077 5.774 5.774 6 0 1@aa558772"/>
  <path d="M 129.817 243.302 L 134.817 246.189 L 134.817 251.963 L 129.817 254.85 L 124.817 251.963 L 124.817 246.189 Z" style="fill: rgb(216, 216, 216);" bx:shape="n-gon 129.817 249.076 5.774 5.774 6 0 1@b6d9da19"/>
  <path d="M 123.567 232.477 L 128.567 235.364 L 128.567 241.138 L 123.567 244.025 L 118.567 241.138 L 118.567 235.364 Z" style="fill: rgb(216, 216, 216);" bx:shape="n-gon 123.567 238.251 5.774 5.774 6 0 1@bac4ac06"/>
  <path d="M 167.317 243.303 L 172.317 246.19 L 172.317 251.964 L 167.317 254.851 L 162.317 251.964 L 162.317 246.19 Z" style="fill: rgb(255, 128, 0);" bx:shape="n-gon 167.317 249.077 5.774 5.774 6 0 1@39b21c0b"/>
  <path d="M 192.317 243.303 L 197.317 246.19 L 197.317 251.964 L 192.317 254.851 L 187.317 251.964 L 187.317 246.19 Z" style="fill: rgb(216, 216, 216);" bx:shape="n-gon 192.317 249.077 5.774 5.774 6 0 1@8d8f6d89"/>
  <path d="M 198.567 232.477 L 203.567 235.364 L 203.567 241.138 L 198.567 244.025 L 193.567 241.138 L 193.567 235.364 Z" style="fill: rgb(216, 216, 216);" bx:shape="n-gon 198.567 238.251 5.774 5.774 6 0 1@90510ddc"/>
  <path d="M 204.817 243.303 L 209.817 246.19 L 209.817 251.964 L 204.817 254.851 L 199.817 251.964 L 199.817 246.19 Z" style="fill: rgb(216, 216, 216);" bx:shape="n-gon 204.817 249.077 5.774 5.774 6 0 1@9b418682"/>
  <path d="M 186.067 232.477 L 191.067 235.364 L 191.067 241.138 L 186.067 244.025 L 181.067 241.138 L 181.067 235.364 Z" style="fill: rgb(255, 0, 0);" bx:shape="n-gon 186.067 238.251 5.774 5.774 6 0 1@eab9fa98"/>
  <path d="M 198.567 232.477 L 203.567 235.364 L 203.567 241.138 L 198.567 244.025 L 193.567 241.138 L 193.567 235.364 Z" style="fill: rgb(255, 0, 0);" bx:shape="n-gon 198.567 238.251 5.774 5.774 6 0 1@90510ddc"/>
  <path d="M 204.817 243.303 L 209.817 246.19 L 209.817 251.964 L 204.817 254.851 L 199.817 251.964 L 199.817 246.19 Z" style="fill: rgb(216, 216, 216);" bx:shape="n-gon 204.817 249.077 5.774 5.774 6 0 1@9b418682"/>
  <path d="M 179.817 243.302 L 184.817 246.189 L 184.817 251.963 L 179.817 254.85 L 174.817 251.963 L 174.817 246.189 Z" style="fill: rgb(216, 216, 216);" bx:shape="n-gon 179.817 249.076 5.774 5.774 6 0 1@c92f01a4"/>
  <path d="M 173.567 232.477 L 178.567 235.364 L 178.567 241.138 L 173.567 244.025 L 168.567 241.138 L 168.567 235.364 Z" style="fill: rgb(216, 216, 216);" bx:shape="n-gon 173.567 238.251 5.774 5.774 6 0 1@ecbd9557"/>
  <path d="M 142.317 221.652 L 147.317 224.539 L 147.317 230.313 L 142.317 233.2 L 137.317 230.313 L 137.317 224.539 Z" style="fill: rgb(255, 0, 0);" bx:shape="n-gon 142.317 227.426 5.774 5.774 6 0 1@96e4602c"/>
  <path d="M 154.817 221.652 L 159.817 224.539 L 159.817 230.313 L 154.817 233.2 L 149.817 230.313 L 149.817 224.539 Z" style="fill: rgb(216, 216, 216);" bx:shape="n-gon 154.817 227.426 5.774 5.774 6 0 1@1900292e"/>
  <path d="M 154.817 221.652 L 159.817 224.539 L 159.817 230.313 L 154.817 233.2 L 149.817 230.313 L 149.817 224.539 Z" style="fill: rgb(216, 216, 216);" bx:shape="n-gon 154.817 227.426 5.774 5.774 6 0 1@1900292e"/>
  <path d="M 167.317 221.652 L 172.317 224.539 L 172.317 230.313 L 167.317 233.2 L 162.317 230.313 L 162.317 224.539 Z" style="fill: rgb(216, 216, 216);" bx:shape="n-gon 167.317 227.426 5.774 5.774 6 0 1@abdb3cdd"/>
  <path d="M 192.317 221.652 L 197.317 224.539 L 197.317 230.313 L 192.317 233.2 L 187.317 230.313 L 187.317 224.539 Z" style="fill: rgb(0, 255, 0);" bx:shape="n-gon 192.317 227.426 5.774 5.774 6 0 1@8480d12d"/>
  <path d="M 198.567 210.826 L 203.567 213.713 L 203.567 219.487 L 198.567 222.374 L 193.567 219.487 L 193.567 213.713 Z" style="fill: rgb(216, 216, 216);" bx:shape="n-gon 198.567 216.6 5.774 5.774 6 0 1@6f2e999f"/>
  <path d="M 204.817 221.652 L 209.817 224.539 L 209.817 230.313 L 204.817 233.2 L 199.817 230.313 L 199.817 224.539 Z" style="fill: rgb(216, 216, 216);" bx:shape="n-gon 204.817 227.426 5.774 5.774 6 0 1@ea49664a"/>
  <path d="M 186.067 210.826 L 191.067 213.713 L 191.067 219.487 L 186.067 222.374 L 181.067 219.487 L 181.067 213.713 Z" style="fill: rgb(216, 216, 216);" bx:shape="n-gon 186.067 216.6 5.774 5.774 6 0 1@d7189567"/>
  <path d="M 198.567 210.826 L 203.567 213.713 L 203.567 219.487 L 198.567 222.374 L 193.567 219.487 L 193.567 213.713 Z" style="fill: rgb(216, 216, 216);" bx:shape="n-gon 198.567 216.6 5.774 5.774 6 0 1@6f2e999f"/>
  <path d="M 204.817 221.652 L 209.817 224.539 L 209.817 230.313 L 204.817 233.2 L 199.817 230.313 L 199.817 224.539 Z" style="fill: rgb(255, 128, 0);" bx:shape="n-gon 204.817 227.426 5.774 5.774 6 0 1@ea49664a"/>
  <path d="M 179.817 221.651 L 184.817 224.538 L 184.817 230.312 L 179.817 233.199 L 174.817 230.312 L 174.817 224.538 Z" style="fill: rgb(216, 216, 216);" bx:shape="n-gon 179.817 227.425 5.774 5.774 6 0 1@d8acf8e8"/>
  <path d="M 173.567 210.826 L 178.567 213.713 L 178.567 219.487 L 173.567 222.374 L 168.567 219.487 L 168.567 213.713 Z" style="fill: rgb(216, 216, 216);" bx:shape="n-gon 173.567 216.6 5.774 5.774 6 0 1@097a04c0"/>
  <path d="M 248.567 254.128 L 253.567 257.015 L 253.567 262.789 L 248.567 265.676 L 243.567 262.789 L 243.567 257.015 Z" style="fill: rgb(216, 216, 216);" bx:shape="n-gon 248.567 259.902 5.774 5.774 6 0 1@9b2983d0"/>
  <path d="M 261.067 254.128 L 266.067 257.015 L 266.067 262.789 L 261.067 265.676 L 256.067 262.789 L 256.067 257.015 Z" style="fill: rgb(216, 216, 216);" bx:shape="n-gon 261.067 259.902 5.774 5.774 6 0 1@e1ac08f2"/>
  <path d="M 236.067 254.128 L 241.067 257.015 L 241.067 262.789 L 236.067 265.676 L 231.067 262.789 L 231.067 257.015 Z" style="fill: rgb(216, 216, 216);" bx:shape="n-gon 236.067 259.902 5.774 5.774 6 0 1@a326c7ca"/>
  <path d="M 248.567 254.128 L 253.567 257.015 L 253.567 262.789 L 248.567 265.676 L 243.567 262.789 L 243.567 257.015 Z" style="fill: rgb(255, 128, 0);" bx:shape="n-gon 248.567 259.902 5.774 5.774 6 0 1@9b2983d0"/>
  <path d="M 223.567 254.128 L 228.567 257.015 L 228.567 262.789 L 223.567 265.676 L 218.567 262.789 L 218.567 257.015 Z" style="fill: rgb(255, 0, 0);" bx:shape="n-gon 223.567 259.902 5.774 5.774 6 0 1@70e3ccd7"/>
  <path d="M 217.317 243.303 L 222.317 246.19 L 222.317 251.964 L 217.317 254.851 L 212.317 251.964 L 212.317 246.19 Z" style="fill: rgb(216, 216, 216);" bx:shape="n-gon 217.317 249.077 5.774 5.774 6 0 1@01fb60a1"/>
  <path d="M 211.067 254.128 L 216.067 257.015 L 216.067 262.789 L 211.067 265.676 L 206.067 262.789 L 206.067 257.015 Z" style="fill: rgb(216, 216, 216);" bx:shape="n-gon 211.067 259.902 5.774 5.774 6 0 1@2f1f4c15"/>
  <path d="M 298.567 254.128 L 303.567 257.015 L 303.567 262.789 L 298.567 265.676 L 293.567 262.789 L 293.567 257.015 Z" style="fill: rgb(216, 216, 216);" bx:shape="n-gon 298.567 259.902 5.774 5.774 6 0 1@fa2a465d"/>
  <path d="M 286.067 254.128 L 291.067 257.015 L 291.067 262.789 L 286.067 265.676 L 281.067 262.789 L 281.067 257.015 Z" style="fill: rgb(216, 216, 216);" bx:shape="n-gon 286.067 259.902 5.774 5.774 6 0 1@d7205cad"/>
  <path d="M 298.567 254.128 L 303.567 257.015 L 303.567 262.789 L 298.567 265.676 L 293.567 262.789 L 293.567 257.015 Z" style="fill: rgb(216, 216, 216);" bx:shape="n-gon 298.567 259.902 5.774 5.774 6 0 1@fa2a465d"/>
  <path d="M 273.567 254.128 L 278.567 257.015 L 278.567 262.789 L 273.567 265.676 L 268.567 262.789 L 268.567 257.015 Z" style="fill: rgb(255, 0, 0);" bx:shape="n-gon 273.567 259.902 5.774 5.774 6 0 1@c488444e"/>
  <path d="M 242.317 243.303 L 247.317 246.19 L 247.317 251.964 L 242.317 254.851 L 237.317 251.964 L 237.317 246.19 Z" style="fill: rgb(216, 216, 216);" bx:shape="n-gon 242.317 249.077 5.774 5.774 6 0 1@bc79b24d"/>
  <path d="M 248.567 232.477 L 253.567 235.364 L 253.567 241.138 L 248.567 244.025 L 243.567 241.138 L 243.567 235.364 Z" style="fill: rgb(216, 216, 216);" bx:shape="n-gon 248.567 238.251 5.774 5.774 6 0 1@987d4cc8"/>
  <path d="M 254.817 243.303 L 259.817 246.19 L 259.817 251.964 L 254.817 254.851 L 249.817 251.964 L 249.817 246.19 Z" style="fill: rgb(216, 216, 216);" bx:shape="n-gon 254.817 249.077 5.774 5.774 6 0 1@84dd679b"/>
  <path d="M 261.067 232.477 L 266.067 235.364 L 266.067 241.138 L 261.067 244.025 L 256.067 241.138 L 256.067 235.364 Z" style="fill: rgb(216, 216, 216);" bx:shape="n-gon 261.067 238.251 5.774 5.774 6 0 1@e43f333e"/>
  <path d="M 236.067 232.477 L 241.067 235.364 L 241.067 241.138 L 236.067 244.025 L 231.067 241.138 L 231.067 235.364 Z" style="fill: rgb(216, 216, 216);" bx:shape="n-gon 236.067 238.251 5.774 5.774 6 0 1@95e658ba"/>
  <path d="M 248.567 232.477 L 253.567 235.364 L 253.567 241.138 L 248.567 244.025 L 243.567 241.138 L 243.567 235.364 Z" style="fill: rgb(216, 216, 216);" bx:shape="n-gon 248.567 238.251 5.774 5.774 6 0 1@987d4cc8"/>
  <path d="M 254.817 243.303 L 259.817 246.19 L 259.817 251.964 L 254.817 254.851 L 249.817 251.964 L 249.817 246.19 Z" style="fill: rgb(216, 216, 216);" bx:shape="n-gon 254.817 249.077 5.774 5.774 6 0 1@84dd679b"/>
  <path d="M 229.817 243.302 L 234.817 246.189 L 234.817 251.963 L 229.817 254.85 L 224.817 251.963 L 224.817 246.189 Z" style="fill: rgb(216, 216, 216);" bx:shape="n-gon 229.817 249.076 5.774 5.774 6 0 1@02ab785c"/>
  <path d="M 223.567 232.477 L 228.567 235.364 L 228.567 241.138 L 223.567 244.025 L 218.567 241.138 L 218.567 235.364 Z" style="fill: rgb(216, 216, 216);" bx:shape="n-gon 223.567 238.251 5.774 5.774 6 0 1@7ec4b3cb"/>
  <path d="M 217.317 221.652 L 222.317 224.539 L 222.317 230.313 L 217.317 233.2 L 212.317 230.313 L 212.317 224.539 Z" style="fill: rgb(216, 216, 216);" bx:shape="n-gon 217.317 227.426 5.774 5.774 6 0 1@6af53eef"/>
  <path d="M 211.067 232.477 L 216.067 235.364 L 216.067 241.138 L 211.067 244.025 L 206.067 241.138 L 206.067 235.364 Z" style="fill: rgb(0, 255, 0);" bx:shape="n-gon 211.067 238.251 5.774 5.774 6 0 1@7802dc01"/>
  <path d="M 267.317 243.303 L 272.317 246.19 L 272.317 251.964 L 267.317 254.851 L 262.317 251.964 L 262.317 246.19 Z" style="fill: rgb(216, 216, 216);" bx:shape="n-gon 267.317 249.077 5.774 5.774 6 0 1@0e5ea812"/>
  <path d="M 292.317 243.303 L 297.317 246.19 L 297.317 251.964 L 292.317 254.851 L 287.317 251.964 L 287.317 246.19 Z" style="fill: rgb(216, 216, 216);" bx:shape="n-gon 292.317 249.077 5.774 5.774 6 0 1@e351c7ec"/>
  <path d="M 298.567 232.477 L 303.567 235.364 L 303.567 241.138 L 298.567 244.025 L 293.567 241.138 L 293.567 235.364 Z" style="fill: rgb(216, 216, 216);" bx:shape="n-gon 298.567 238.251 5.774 5.774 6 0 1@73bc818d"/>
  <path d="M 304.817 243.303 L 309.817 246.19 L 309.817 251.964 L 304.817 254.851 L 299.817 251.964 L 299.817 246.19 Z" style="fill: rgb(216, 216, 216);" bx:shape="n-gon 304.817 249.077 5.774 5.774 6 0 1@3de787ad"/>
  <path d="M 286.067 232.477 L 291.067 235.364 L 291.067 241.138 L 286.067 244.025 L 281.067 241.138 L 281.067 235.364 Z" style="fill: rgb(216, 216, 216);" bx:shape="n-gon 286.067 238.251 5.774 5.774 6 0 1@424e6e55"/>
  <path d="M 298.567 232.477 L 303.567 235.364 L 303.567 241.138 L 298.567 244.025 L 293.567 241.138 L 293.567 235.364 Z" style="fill: rgb(0, 255, 0);" bx:shape="n-gon 298.567 238.251 5.774 5.774 6 0 1@73bc818d"/>
  <path d="M 304.817 243.303 L 309.817 246.19 L 309.817 251.964 L 304.817 254.851 L 299.817 251.964 L 299.817 246.19 Z" style="fill: rgb(216, 216, 216);" bx:shape="n-gon 304.817 249.077 5.774 5.774 6 0 1@3de787ad"/>
  <path d="M 279.817 243.302 L 284.817 246.189 L 284.817 251.963 L 279.817 254.85 L 274.817 251.963 L 274.817 246.189 Z" style="fill: rgb(216, 216, 216);" bx:shape="n-gon 279.817 249.076 5.774 5.774 6 0 1@8b196615"/>
  <path d="M 273.567 232.477 L 278.567 235.364 L 278.567 241.138 L 273.567 244.025 L 268.567 241.138 L 268.567 235.364 Z" style="fill: rgb(216, 216, 216);" bx:shape="n-gon 273.567 238.251 5.774 5.774 6 0 1@34058f3e"/>
  <path d="M 242.317 221.652 L 247.317 224.539 L 247.317 230.313 L 242.317 233.2 L 237.317 230.313 L 237.317 224.539 Z" style="fill: rgb(216, 216, 216);" bx:shape="n-gon 242.317 227.426 5.774 5.774 6 0 1@0a0d8f15"/>
  <path d="M 248.567 210.826 L 253.567 213.713 L 253.567 219.487 L 248.567 222.374 L 243.567 219.487 L 243.567 213.713 Z" style="fill: rgb(216, 216, 216);" bx:shape="n-gon 248.567 216.6 5.774 5.774 6 0 1@3d54c957"/>
  <path d="M 254.817 221.652 L 259.817 224.539 L 259.817 230.313 L 254.817 233.2 L 249.817 230.313 L 249.817 224.539 Z" style="fill: rgb(216, 216, 216);" bx:shape="n-gon 254.817 227.426 5.774 5.774 6 0 1@9e51c2cf"/>
  <path d="M 261.067 210.826 L 266.067 213.713 L 266.067 219.487 L 261.067 222.374 L 256.067 219.487 L 256.067 213.713 Z" style="fill: rgb(216, 216, 216);" bx:shape="n-gon 261.067 216.6 5.774 5.774 6 0 1@fa6e8399"/>
  <path d="M 236.067 210.826 L 241.067 213.713 L 241.067 219.487 L 236.067 222.374 L 231.067 219.487 L 231.067 213.713 Z" style="fill: rgb(216, 216, 216);" bx:shape="n-gon 236.067 216.6 5.774 5.774 6 0 1@dca3084d"/>
  <path d="M 248.567 210.826 L 253.567 213.713 L 253.567 219.487 L 248.567 222.374 L 243.567 219.487 L 243.567 213.713 Z" style="fill: rgb(216, 216, 216);" bx:shape="n-gon 248.567 216.6 5.774 5.774 6 0 1@3d54c957"/>
  <path d="M 254.817 221.652 L 259.817 224.539 L 259.817 230.313 L 254.817 233.2 L 249.817 230.313 L 249.817 224.539 Z" style="fill: rgb(216, 216, 216);" bx:shape="n-gon 254.817 227.426 5.774 5.774 6 0 1@9e51c2cf"/>
  <path d="M 229.817 221.651 L 234.817 224.538 L 234.817 230.312 L 229.817 233.199 L 224.817 230.312 L 224.817 224.538 Z" style="fill: rgb(216, 216, 216);" bx:shape="n-gon 229.817 227.425 5.774 5.774 6 0 1@295bddf0"/>
  <path d="M 223.567 210.826 L 228.567 213.713 L 228.567 219.487 L 223.567 222.374 L 218.567 219.487 L 218.567 213.713 Z" style="fill: rgb(216, 216, 216);" bx:shape="n-gon 223.567 216.6 5.774 5.774 6 0 1@b1ffa840"/>
  <path d="M 217.317 200 L 222.317 202.887 L 222.317 208.661 L 217.317 211.548 L 212.317 208.661 L 212.317 202.887 Z" style="fill: rgb(255, 0, 0);" bx:shape="n-gon 217.317 205.774 5.774 5.774 6 0 1@2c35a7c2"/>
  <path d="M 211.067 210.826 L 216.067 213.713 L 216.067 219.487 L 211.067 222.374 L 206.067 219.487 L 206.067 213.713 Z" style="fill: rgb(216, 216, 216);" bx:shape="n-gon 211.067 216.6 5.774 5.774 6 0 1@e6e52a76"/>
  <path d="M 267.317 221.652 L 272.317 224.539 L 272.317 230.313 L 267.317 233.2 L 262.317 230.313 L 262.317 224.539 Z" style="fill: rgb(0, 255, 0);" bx:shape="n-gon 267.317 227.426 5.774 5.774 6 0 1@5e23fc58"/>
  <path d="M 292.317 221.652 L 297.317 224.539 L 297.317 230.313 L 292.317 233.2 L 287.317 230.313 L 287.317 224.539 Z" style="fill: rgb(216, 216, 216);" bx:shape="n-gon 292.317 227.426 5.774 5.774 6 0 1@b9bdb9f8"/>
  <path d="M 298.567 210.826 L 303.567 213.713 L 303.567 219.487 L 298.567 222.374 L 293.567 219.487 L 293.567 213.713 Z" style="fill: rgb(216, 216, 216);" bx:shape="n-gon 298.567 216.6 5.774 5.774 6 0 1@68545f96"/>
  <path d="M 304.817 221.652 L 309.817 224.539 L 309.817 230.313 L 304.817 233.2 L 299.817 230.313 L 299.817 224.539 Z" style="fill: rgb(216, 216, 216);" bx:shape="n-gon 304.817 227.426 5.774 5.774 6 0 1@3d2d74c9"/>
  <path d="M 286.067 210.826 L 291.067 213.713 L 291.067 219.487 L 286.067 222.374 L 281.067 219.487 L 281.067 213.713 Z" style="fill: rgb(216, 216, 216);" bx:shape="n-gon 286.067 216.6 5.774 5.774 6 0 1@307b8c96"/>
  <path d="M 298.567 210.826 L 303.567 213.713 L 303.567 219.487 L 298.567 222.374 L 293.567 219.487 L 293.567 213.713 Z" style="fill: rgb(255, 255, 0);" bx:shape="n-gon 298.567 216.6 5.774 5.774 6 0 1@68545f96"/>
  <path d="M 304.817 221.652 L 309.817 224.539 L 309.817 230.313 L 304.817 233.2 L 299.817 230.313 L 299.817 224.539 Z" style="fill: rgb(0, 255, 0);" bx:shape="n-gon 304.817 227.426 5.774 5.774 6 0 1@3d2d74c9"/>
  <path d="M 279.817 221.651 L 284.817 224.538 L 284.817 230.312 L 279.817 233.199 L 274.817 230.312 L 274.817 224.538 Z" style="fill: rgb(216, 216, 216);" bx:shape="n-gon 279.817 227.425 5.774 5.774 6 0 1@21acb9d1"/>
  <path d="M 273.567 210.826 L 278.567 213.713 L 278.567 219.487 L 273.567 222.374 L 268.567 219.487 L 268.567 213.713 Z" style="fill: rgb(255, 128, 0);" bx:shape="n-gon 273.567 216.6 5.774 5.774 6 0 1@72775a5d"/>
  <path d="M 242.317 200 L 247.317 202.887 L 247.317 208.661 L 242.317 211.548 L 237.317 208.661 L 237.317 202.887 Z" style="fill: rgb(255, 128, 0);" bx:shape="n-gon 242.317 205.774 5.774 5.774 6 0 1@c50f8630"/>
  <path d="M 254.817 200 L 259.817 202.887 L 259.817 208.661 L 254.817 211.548 L 249.817 208.661 L 249.817 202.887 Z" style="fill: rgb(216, 216, 216);" bx:shape="n-gon 254.817 205.774 5.774 5.774 6 0 1@2c9fe4fa"/>
  <path d="M 254.817 200 L 259.817 202.887 L 259.817 208.661 L 254.817 211.548 L 249.817 208.661 L 249.817 202.887 Z" style="fill: rgb(216, 216, 216);" bx:shape="n-gon 254.817 205.774 5.774 5.774 6 0 1@2c9fe4fa"/>
  <path d="M 229.817 200 L 234.817 202.887 L 234.817 208.661 L 229.817 211.548 L 224.817 208.661 L 224.817 202.887 Z" style="fill: rgb(0, 255, 0);" bx:shape="n-gon 229.817 205.774 5.774 5.774 6 0 1@6bcaaf52"/>
  <path d="M 267.317 200 L 272.317 202.887 L 272.317 208.661 L 267.317 211.548 L 262.317 208.661 L 262.317 202.887 Z" style="fill: rgb(216, 216, 216);" bx:shape="n-gon 267.317 205.774 5.774 5.774 6 0 1@321054e5"/>
  <path d="M 348.567 254.128 L 353.567 257.015 L 353.567 262.789 L 348.567 265.676 L 343.567 262.789 L 343.567 257.015 Z" style="fill: rgb(216, 216, 216);" bx:shape="n-gon 348.567 259.902 5.774 5.774 6 0 1@dd96ee0b"/>
  <path d="M 361.067 254.128 L 366.067 257.015 L 366.067 262.789 L 361.067 265.676 L 356.067 262.789 L 356.067 257.015 Z" style="fill: rgb(216, 216, 216);" bx:shape="n-gon 361.067 259.902 5.774 5.774 6 0 1@0f46b819"/>
  <path d="M 336.067 254.128 L 341.067 257.015 L 341.067 262.789 L 336.067 265.676 L 331.067 262.789 L 331.067 257.015 Z" style="fill: rgb(216, 216, 216);" bx:shape="n-gon 336.067 259.902 5.774 5.774 6 0 1@1c2bafb1"/>
  <path d="M 348.567 254.128 L 353.567 257.015 L 353.567 262.789 L 348.567 265.676 L 343.567 262.789 L 343.567 257.015 Z" style="fill: rgb(0, 0, 255);" bx:shape="n-gon 348.567 259.902 5.774 5.774 6 0 1@dd96ee0b"/>
  <path d="M 323.567 254.128 L 328.567 257.015 L 328.567 262.789 L 323.567 265.676 L 318.567 262.789 L 318.567 257.015 Z" style="fill: rgb(216, 216, 216);" bx:shape="n-gon 323.567 259.902 5.774 5.774 6 0 1@8f8d7b70"/>
  <path d="M 317.317 243.303 L 322.317 246.19 L 322.317 251.964 L 317.317 254.851 L 312.317 251.964 L 312.317 246.19 Z" style="fill: rgb(216, 216, 216);" bx:shape="n-gon 317.317 249.077 5.774 5.774 6 0 1@f241ffc6"/>
  <path d="M 311.067 254.128 L 316.067 257.015 L 316.067 262.789 L 311.067 265.676 L 306.067 262.789 L 306.067 257.015 Z" style="fill: rgb(216, 216, 216);" bx:shape="n-gon 311.067 259.902 5.774 5.774 6 0 1@2e113cc2"/>
  <path d="M 386.067 254.128 L 391.067 257.015 L 391.067 262.789 L 386.067 265.676 L 381.067 262.789 L 381.067 257.015 Z" style="fill: rgb(255, 0, 0);" bx:shape="n-gon 386.067 259.902 5.774 5.774 6 0 1@2e76b1d2"/>
  <path d="M 373.567 254.128 L 378.567 257.015 L 378.567 262.789 L 373.567 265.676 L 368.567 262.789 L 368.567 257.015 Z" style="fill: rgb(255, 128, 0);" bx:shape="n-gon 373.567 259.902 5.774 5.774 6 0 1@968b1fa9"/>
  <path d="M 342.317 243.303 L 347.317 246.19 L 347.317 251.964 L 342.317 254.851 L 337.317 251.964 L 337.317 246.19 Z" style="fill: rgb(216, 216, 216);" bx:shape="n-gon 342.317 249.077 5.774 5.774 6 0 1@230de902"/>
  <path d="M 348.567 232.477 L 353.567 235.364 L 353.567 241.138 L 348.567 244.025 L 343.567 241.138 L 343.567 235.364 Z" style="fill: rgb(216, 216, 216);" bx:shape="n-gon 348.567 238.251 5.774 5.774 6 0 1@c5b1166b"/>
  <path d="M 354.817 243.303 L 359.817 246.19 L 359.817 251.964 L 354.817 254.851 L 349.817 251.964 L 349.817 246.19 Z" style="fill: rgb(216, 216, 216);" bx:shape="n-gon 354.817 249.077 5.774 5.774 6 0 1@26bff734"/>
  <path d="M 361.067 232.477 L 366.067 235.364 L 366.067 241.138 L 361.067 244.025 L 356.067 241.138 L 356.067 235.364 Z" style="fill: rgb(216, 216, 216);" bx:shape="n-gon 361.067 238.251 5.774 5.774 6 0 1@316acb05"/>
  <path d="M 336.067 232.477 L 341.067 235.364 L 341.067 241.138 L 336.067 244.025 L 331.067 241.138 L 331.067 235.364 Z" style="fill: rgb(216, 216, 216);" bx:shape="n-gon 336.067 238.251 5.774 5.774 6 0 1@e52ead51"/>
  <path d="M 348.567 232.477 L 353.567 235.364 L 353.567 241.138 L 348.567 244.025 L 343.567 241.138 L 343.567 235.364 Z" style="fill: rgb(255, 255, 0);" bx:shape="n-gon 348.567 238.251 5.774 5.774 6 0 1@c5b1166b"/>
  <path d="M 354.817 243.303 L 359.817 246.19 L 359.817 251.964 L 354.817 254.851 L 349.817 251.964 L 349.817 246.19 Z" style="fill: rgb(216, 216, 216);" bx:shape="n-gon 354.817 249.077 5.774 5.774 6 0 1@26bff734"/>
  <path d="M 329.817 243.302 L 334.817 246.189 L 334.817 251.963 L 329.817 254.85 L 324.817 251.963 L 324.817 246.189 Z" style="fill: rgb(216, 216, 216);" bx:shape="n-gon 329.817 249.076 5.774 5.774 6 0 1@f1df752b"/>
  <path d="M 323.567 232.477 L 328.567 235.364 L 328.567 241.138 L 323.567 244.025 L 318.567 241.138 L 318.567 235.364 Z" style="fill: rgb(216, 216, 216);" bx:shape="n-gon 323.567 238.251 5.774 5.774 6 0 1@1e004234"/>
  <path d="M 317.317 221.652 L 322.317 224.539 L 322.317 230.313 L 317.317 233.2 L 312.317 230.313 L 312.317 224.539 Z" style="fill: rgb(0, 0, 255);" bx:shape="n-gon 317.317 227.426 5.774 5.774 6 0 1@40d7666c"/>
  <path d="M 311.067 232.477 L 316.067 235.364 L 316.067 241.138 L 311.067 244.025 L 306.067 241.138 L 306.067 235.364 Z" style="fill: rgb(216, 216, 216);" bx:shape="n-gon 311.067 238.251 5.774 5.774 6 0 1@1b3820b6"/>
  <path d="M 367.317 243.303 L 372.317 246.19 L 372.317 251.964 L 367.317 254.851 L 362.317 251.964 L 362.317 246.19 Z" style="fill: rgb(216, 216, 216);" bx:shape="n-gon 367.317 249.077 5.774 5.774 6 0 1@a3bd7ba9"/>
  <path d="M 392.317 243.303 L 397.317 246.19 L 397.317 251.964 L 392.317 254.851 L 387.317 251.964 L 387.317 246.19 Z" style="fill: rgb(0, 255, 0);" bx:shape="n-gon 392.317 249.077 5.774 5.774 6 0 1@da96339b"/>
  <path d="M 386.067 232.477 L 391.067 235.364 L 391.067 241.138 L 386.067 244.025 L 381.067 241.138 L 381.067 235.364 Z" style="fill: rgb(255, 128, 0);" bx:shape="n-gon 386.067 238.251 5.774 5.774 6 0 1@b84dfa32"/>
  <path d="M 379.817 243.302 L 384.817 246.189 L 384.817 251.963 L 379.817 254.85 L 374.817 251.963 L 374.817 246.189 Z" style="fill: rgb(255, 255, 0);" bx:shape="n-gon 379.817 249.076 5.774 5.774 6 0 1@04372a42"/>
  <path d="M 373.567 232.477 L 378.567 235.364 L 378.567 241.138 L 373.567 244.025 L 368.567 241.138 L 368.567 235.364 Z" style="fill: rgb(255, 0, 0);" bx:shape="n-gon 373.567 238.251 5.774 5.774 6 0 1@da7534e9"/>
  <path d="M 342.317 221.652 L 347.317 224.539 L 347.317 230.313 L 342.317 233.2 L 337.317 230.313 L 337.317 224.539 Z" style="fill: rgb(0, 0, 255);" bx:shape="n-gon 342.317 227.426 5.774 5.774 6 0 1@9f880272"/>
  <path d="M 329.817 221.651 L 334.817 224.538 L 334.817 230.312 L 329.817 233.199 L 324.817 230.312 L 324.817 224.538 Z" style="fill: rgb(255, 255, 0);" bx:shape="n-gon 329.817 227.425 5.774 5.774 6 0 1@79317317"/>
  <path d="M 323.567 210.826 L 328.567 213.713 L 328.567 219.487 L 323.567 222.374 L 318.567 219.487 L 318.567 213.713 Z" style="fill: rgb(216, 216, 216);" bx:shape="n-gon 323.567 216.6 5.774 5.774 6 0 1@2938121f"/>
  <path d="M 311.067 210.826 L 316.067 213.713 L 316.067 219.487 L 311.067 222.374 L 306.067 219.487 L 306.067 213.713 Z" style="fill: rgb(216, 216, 216);" bx:shape="n-gon 311.067 216.6 5.774 5.774 6 0 1@aa5e5419"/>
  <path d="M 48.567 297.431 L 53.567 300.318 L 53.567 306.092 L 48.567 308.979 L 43.567 306.092 L 43.567 300.318 Z" style="fill: rgb(216, 216, 216);" bx:shape="n-gon 48.567 303.205 5.774 5.774 6 0 1@5249421a"/>
  <path d="M 61.067 297.431 L 66.067 300.318 L 66.067 306.092 L 61.067 308.979 L 56.067 306.092 L 56.067 300.318 Z" style="fill: rgb(0, 255, 0);" bx:shape="n-gon 61.067 303.205 5.774 5.774 6 0 1@c47039e8"/>
  <path d="M 36.067 297.431 L 41.067 300.318 L 41.067 306.092 L 36.067 308.979 L 31.067 306.092 L 31.067 300.318 Z" style="fill: rgb(0, 0, 255);" bx:shape="n-gon 36.067 303.205 5.774 5.774 6 0 1@6de670c4"/>
  <path d="M 48.567 297.431 L 53.567 300.318 L 53.567 306.092 L 48.567 308.979 L 43.567 306.092 L 43.567 300.318 Z" style="fill: rgb(255, 0, 0);" bx:shape="n-gon 48.567 303.205 5.774 5.774 6 0 1@5249421a"/>
  <path d="M 17.317 286.605 L 22.317 289.492 L 22.317 295.266 L 17.317 298.153 L 12.317 295.266 L 12.317 289.492 Z" style="fill: rgb(255, 0, 0);" bx:shape="n-gon 17.317 292.379 5.774 5.774 6 0 1@99d2acf1"/>
  <path d="M 67.317 308.257 L 72.317 311.144 L 72.317 316.918 L 67.317 319.805 L 62.317 316.918 L 62.317 311.144 Z" style="fill: rgb(0, 0, 255);" bx:shape="n-gon 67.317 314.031 5.774 5.774 6 0 1@7eea2416"/>
  <path d="M 92.317 308.257 L 97.317 311.144 L 97.317 316.918 L 92.317 319.805 L 87.317 316.918 L 87.317 311.144 Z" style="fill: rgb(0, 255, 0);" bx:shape="n-gon 92.317 314.031 5.774 5.774 6 0 1@017ac36a"/>
  <path d="M 98.567 297.431 L 103.567 300.318 L 103.567 306.092 L 98.567 308.979 L 93.567 306.092 L 93.567 300.318 Z" style="fill: rgb(216, 216, 216);" bx:shape="n-gon 98.567 303.205 5.774 5.774 6 0 1@6bdeef89"/>
  <path d="M 104.817 308.257 L 109.817 311.144 L 109.817 316.918 L 104.817 319.805 L 99.817 316.918 L 99.817 311.144 Z" style="fill: rgb(216, 216, 216);" bx:shape="n-gon 104.817 314.031 5.774 5.774 6 0 1@bec52b59"/>
  <path d="M 86.067 297.431 L 91.067 300.318 L 91.067 306.092 L 86.067 308.979 L 81.067 306.092 L 81.067 300.318 Z" style="fill: rgb(216, 216, 216);" bx:shape="n-gon 86.067 303.205 5.774 5.774 6 0 1@70219415"/>
  <path d="M 98.567 297.431 L 103.567 300.318 L 103.567 306.092 L 98.567 308.979 L 93.567 306.092 L 93.567 300.318 Z" style="fill: rgb(216, 216, 216);" bx:shape="n-gon 98.567 303.205 5.774 5.774 6 0 1@6bdeef89"/>
  <path d="M 104.817 308.257 L 109.817 311.144 L 109.817 316.918 L 104.817 319.805 L 99.817 316.918 L 99.817 311.144 Z" style="fill: rgb(255, 128, 0);" bx:shape="n-gon 104.817 314.031 5.774 5.774 6 0 1@bec52b59"/>
  <path d="M 79.817 308.256 L 84.817 311.143 L 84.817 316.917 L 79.817 319.804 L 74.817 316.917 L 74.817 311.143 Z" style="fill: rgb(255, 128, 0);" bx:shape="n-gon 79.817 314.03 5.774 5.774 6 0 1@2cb9f521"/>
  <path d="M 73.567 297.431 L 78.567 300.318 L 78.567 306.092 L 73.567 308.979 L 68.567 306.092 L 68.567 300.318 Z" style="fill: rgb(216, 216, 216);" bx:shape="n-gon 73.567 303.205 5.774 5.774 6 0 1@f0f3b480"/>
  <path d="M 42.317 286.605 L 47.317 289.492 L 47.317 295.266 L 42.317 298.153 L 37.317 295.266 L 37.317 289.492 Z" style="fill: rgb(255, 255, 0);" bx:shape="n-gon 42.317 292.379 5.774 5.774 6 0 1@aacaf5ab"/>
  <path d="M 48.567 275.78 L 53.567 278.667 L 53.567 284.441 L 48.567 287.328 L 43.567 284.441 L 43.567 278.667 Z" style="fill: rgb(216, 216, 216);" bx:shape="n-gon 48.567 281.554 5.774 5.774 6 0 1@1e920101"/>
  <path d="M 54.817 286.605 L 59.817 289.492 L 59.817 295.266 L 54.817 298.153 L 49.817 295.266 L 49.817 289.492 Z" style="fill: rgb(216, 216, 216);" bx:shape="n-gon 54.817 292.379 5.774 5.774 6 0 1@d34634a5"/>
  <path d="M 61.067 275.78 L 66.067 278.667 L 66.067 284.441 L 61.067 287.328 L 56.067 284.441 L 56.067 278.667 Z" style="fill: rgb(216, 216, 216);" bx:shape="n-gon 61.067 281.554 5.774 5.774 6 0 1@b31ff967"/>
  <path d="M 36.067 275.78 L 41.067 278.667 L 41.067 284.441 L 36.067 287.328 L 31.067 284.441 L 31.067 278.667 Z" style="fill: rgb(216, 216, 216);" bx:shape="n-gon 36.067 281.554 5.774 5.774 6 0 1@06a58a0b"/>
  <path d="M 48.567 275.78 L 53.567 278.667 L 53.567 284.441 L 48.567 287.328 L 43.567 284.441 L 43.567 278.667 Z" style="fill: rgb(216, 216, 216);" bx:shape="n-gon 48.567 281.554 5.774 5.774 6 0 1@1e920101"/>
  <path d="M 54.817 286.605 L 59.817 289.492 L 59.817 295.266 L 54.817 298.153 L 49.817 295.266 L 49.817 289.492 Z" style="fill: rgb(255, 128, 0);" bx:shape="n-gon 54.817 292.379 5.774 5.774 6 0 1@d34634a5"/>
  <path d="M 29.817 286.605 L 34.817 289.492 L 34.817 295.266 L 29.817 298.153 L 24.817 295.266 L 24.817 289.492 Z" style="fill: rgb(255, 255, 0);" bx:shape="n-gon 29.817 292.379 5.774 5.774 6 0 1@badb3a3d"/>
  <path d="M 23.567 275.78 L 28.567 278.667 L 28.567 284.441 L 23.567 287.328 L 18.567 284.441 L 18.567 278.667 Z" style="fill: rgb(0, 0, 255);" bx:shape="n-gon 23.567 281.554 5.774 5.774 6 0 1@6bfc145a"/>
  <path d="M 67.317 286.605 L 72.317 289.492 L 72.317 295.266 L 67.317 298.153 L 62.317 295.266 L 62.317 289.492 Z" style="fill: rgb(0, 0, 255);" bx:shape="n-gon 67.317 292.379 5.774 5.774 6 0 1@f8da8830"/>
  <path d="M 92.317 286.605 L 97.317 289.492 L 97.317 295.266 L 92.317 298.153 L 87.317 295.266 L 87.317 289.492 Z" style="fill: rgb(216, 216, 216);" bx:shape="n-gon 92.317 292.379 5.774 5.774 6 0 1@599444f4"/>
  <path d="M 98.567 275.78 L 103.567 278.667 L 103.567 284.441 L 98.567 287.328 L 93.567 284.441 L 93.567 278.667 Z" style="fill: rgb(216, 216, 216);" bx:shape="n-gon 98.567 281.554 5.774 5.774 6 0 1@42051aba"/>
  <path d="M 104.817 286.605 L 109.817 289.492 L 109.817 295.266 L 104.817 298.153 L 99.817 295.266 L 99.817 289.492 Z" style="fill: rgb(216, 216, 216);" bx:shape="n-gon 104.817 292.379 5.774 5.774 6 0 1@1862bf87"/>
  <path d="M 86.067 275.78 L 91.067 278.667 L 91.067 284.441 L 86.067 287.328 L 81.067 284.441 L 81.067 278.667 Z" style="fill: rgb(255, 128, 0);" bx:shape="n-gon 86.067 281.554 5.774 5.774 6 0 1@0a60e320"/>
  <path d="M 104.817 286.605 L 109.817 289.492 L 109.817 295.266 L 104.817 298.153 L 99.817 295.266 L 99.817 289.492 Z" style="fill: rgb(0, 0, 255);" bx:shape="n-gon 104.817 292.379 5.774 5.774 6 0 1@1862bf87"/>
  <path d="M 79.817 286.605 L 84.817 289.492 L 84.817 295.266 L 79.817 298.153 L 74.817 295.266 L 74.817 289.492 Z" style="fill: rgb(216, 216, 216);" bx:shape="n-gon 79.817 292.379 5.774 5.774 6 0 1@538236fe"/>
  <path d="M 73.567 275.78 L 78.567 278.667 L 78.567 284.441 L 73.567 287.328 L 68.567 284.441 L 68.567 278.667 Z" style="fill: rgb(255, 255, 0);" bx:shape="n-gon 73.567 281.554 5.774 5.774 6 0 1@658d04f3"/>
  <path d="M 54.817 264.955 L 59.817 267.842 L 59.817 273.616 L 54.817 276.503 L 49.817 273.616 L 49.817 267.842 Z" style="fill: rgb(216, 216, 216);" bx:shape="n-gon 54.817 270.729 5.774 5.774 6 0 1@47607e57"/>
  <path d="M 42.317 264.955 L 47.317 267.842 L 47.317 273.616 L 42.317 276.503 L 37.317 273.616 L 37.317 267.842 Z" style="fill: rgb(216, 216, 216);" bx:shape="n-gon 42.317 270.729 5.774 5.774 6 0 1@cbb80ddd"/>
  <path d="M 29.817 264.955 L 34.817 267.842 L 34.817 273.616 L 29.817 276.503 L 24.817 273.616 L 24.817 267.842 Z" style="fill: rgb(0, 255, 0);" bx:shape="n-gon 29.817 270.729 5.774 5.774 6 0 1@831b9fb3"/>
  <path d="M 104.817 264.955 L 109.817 267.842 L 109.817 273.616 L 104.817 276.503 L 99.817 273.616 L 99.817 267.842 Z" style="fill: rgb(216, 216, 216);" bx:shape="n-gon 104.817 270.729 5.774 5.774 6 0 1@7a0ea29d"/>
  <path d="M 111.067 275.78 L 116.067 278.667 L 116.067 284.441 L 111.067 287.328 L 106.067 284.441 L 106.067 278.667 Z" style="fill: rgb(216, 216, 216);" bx:shape="n-gon 111.067 281.554 5.774 5.774 6 0 1@873c3eed"/>
  <path d="M 92.317 264.955 L 97.317 267.842 L 97.317 273.616 L 92.317 276.503 L 87.317 273.616 L 87.317 267.842 Z" style="fill: rgb(216, 216, 216);" bx:shape="n-gon 92.317 270.729 5.774 5.774 6 0 1@381e15f2"/>
  <path d="M 79.817 264.955 L 84.817 267.842 L 84.817 273.616 L 79.817 276.503 L 74.817 273.616 L 74.817 267.842 Z" style="fill: rgb(0, 0, 255);" bx:shape="n-gon 79.817 270.729 5.774 5.774 6 0 1@a6011a6c"/>
  <path d="M 67.317 264.955 L 72.317 267.842 L 72.317 273.616 L 67.317 276.503 L 62.317 273.616 L 62.317 267.842 Z" style="fill: rgb(255, 0, 0);" bx:shape="n-gon 67.317 270.729 5.774 5.774 6 0 1@a0d61faa"/>
  <path d="M 148.567 297.431 L 153.567 300.318 L 153.567 306.092 L 148.567 308.979 L 143.567 306.092 L 143.567 300.318 Z" style="fill: rgb(216, 216, 216);" bx:shape="n-gon 148.567 303.205 5.774 5.774 6 0 1@67e5757b"/>
  <path d="M 161.067 297.431 L 166.067 300.318 L 166.067 306.092 L 161.067 308.979 L 156.067 306.092 L 156.067 300.318 Z" style="fill: rgb(216, 216, 216);" bx:shape="n-gon 161.067 303.205 5.774 5.774 6 0 1@6afa6b89"/>
  <path d="M 136.067 297.431 L 141.067 300.318 L 141.067 306.092 L 136.067 308.979 L 131.067 306.092 L 131.067 300.318 Z" style="fill: rgb(216, 216, 216);" bx:shape="n-gon 136.067 303.205 5.774 5.774 6 0 1@e95d40d5"/>
  <path d="M 148.567 297.431 L 153.567 300.318 L 153.567 306.092 L 148.567 308.979 L 143.567 306.092 L 143.567 300.318 Z" style="fill: rgb(255, 128, 0);" bx:shape="n-gon 148.567 303.205 5.774 5.774 6 0 1@67e5757b"/>
  <path d="M 123.567 297.431 L 128.567 300.318 L 128.567 306.092 L 123.567 308.979 L 118.567 306.092 L 118.567 300.318 Z" style="fill: rgb(0, 0, 255);" bx:shape="n-gon 123.567 303.205 5.774 5.774 6 0 1@593e4018"/>
  <path d="M 117.317 286.605 L 122.317 289.492 L 122.317 295.266 L 117.317 298.153 L 112.317 295.266 L 112.317 289.492 Z" style="fill: rgb(255, 0, 0);" bx:shape="n-gon 117.317 292.379 5.774 5.774 6 0 1@98dcc552"/>
  <path d="M 111.067 297.431 L 116.067 300.318 L 116.067 306.092 L 111.067 308.979 L 106.067 306.092 L 106.067 300.318 Z" style="fill: rgb(0, 255, 0);" bx:shape="n-gon 111.067 303.205 5.774 5.774 6 0 1@7076db82"/>
  <path d="M 198.567 297.431 L 203.567 300.318 L 203.567 306.092 L 198.567 308.979 L 193.567 306.092 L 193.567 300.318 Z" style="fill: rgb(216, 216, 216);" bx:shape="n-gon 198.567 303.205 5.774 5.774 6 0 1@e75c668e"/>
  <path d="M 186.067 297.431 L 191.067 300.318 L 191.067 306.092 L 186.067 308.979 L 181.067 306.092 L 181.067 300.318 Z" style="fill: rgb(216, 216, 216);" bx:shape="n-gon 186.067 303.205 5.774 5.774 6 0 1@2c31b48a"/>
  <path d="M 198.567 297.431 L 203.567 300.318 L 203.567 306.092 L 198.567 308.979 L 193.567 306.092 L 193.567 300.318 Z" style="fill: rgb(0, 0, 255);" bx:shape="n-gon 198.567 303.205 5.774 5.774 6 0 1@e75c668e"/>
  <path d="M 173.567 297.431 L 178.567 300.318 L 178.567 306.092 L 173.567 308.979 L 168.567 306.092 L 168.567 300.318 Z" style="fill: rgb(255, 255, 0);" bx:shape="n-gon 173.567 303.205 5.774 5.774 6 0 1@62275dc1"/>
  <path d="M 142.317 286.605 L 147.317 289.492 L 147.317 295.266 L 142.317 298.153 L 137.317 295.266 L 137.317 289.492 Z" style="fill: rgb(216, 216, 216);" bx:shape="n-gon 142.317 292.379 5.774 5.774 6 0 1@437f1100"/>
  <path d="M 148.567 275.78 L 153.567 278.667 L 153.567 284.441 L 148.567 287.328 L 143.567 284.441 L 143.567 278.667 Z" style="fill: rgb(216, 216, 216);" bx:shape="n-gon 148.567 281.554 5.774 5.774 6 0 1@5449e7b6"/>
  <path d="M 154.817 286.605 L 159.817 289.492 L 159.817 295.266 L 154.817 298.153 L 149.817 295.266 L 149.817 289.492 Z" style="fill: rgb(216, 216, 216);" bx:shape="n-gon 154.817 292.379 5.774 5.774 6 0 1@24b6c18e"/>
  <path d="M 161.067 275.78 L 166.067 278.667 L 166.067 284.441 L 161.067 287.328 L 156.067 284.441 L 156.067 278.667 Z" style="fill: rgb(216, 216, 216);" bx:shape="n-gon 161.067 281.554 5.774 5.774 6 0 1@47d4ba3c"/>
  <path d="M 136.067 275.78 L 141.067 278.667 L 141.067 284.441 L 136.067 287.328 L 131.067 284.441 L 131.067 278.667 Z" style="fill: rgb(0, 255, 0);" bx:shape="n-gon 136.067 281.554 5.774 5.774 6 0 1@eb80a6a8"/>
  <path d="M 148.567 275.78 L 153.567 278.667 L 153.567 284.441 L 148.567 287.328 L 143.567 284.441 L 143.567 278.667 Z" style="fill: rgb(0, 0, 255);" bx:shape="n-gon 148.567 281.554 5.774 5.774 6 0 1@5449e7b6"/>
  <path d="M 154.817 286.605 L 159.817 289.492 L 159.817 295.266 L 154.817 298.153 L 149.817 295.266 L 149.817 289.492 Z" style="fill: rgb(255, 255, 0);" bx:shape="n-gon 154.817 292.379 5.774 5.774 6 0 1@24b6c18e"/>
  <path d="M 129.817 286.605 L 134.817 289.492 L 134.817 295.266 L 129.817 298.153 L 124.817 295.266 L 124.817 289.492 Z" style="fill: rgb(216, 216, 216);" bx:shape="n-gon 129.817 292.379 5.774 5.774 6 0 1@bbec820e"/>
  <path d="M 123.567 275.78 L 128.567 278.667 L 128.567 284.441 L 123.567 287.328 L 118.567 284.441 L 118.567 278.667 Z" style="fill: rgb(216, 216, 216);" bx:shape="n-gon 123.567 281.554 5.774 5.774 6 0 1@d64e1ed7"/>
  <path d="M 117.317 264.955 L 122.317 267.842 L 122.317 273.616 L 117.317 276.503 L 112.317 273.616 L 112.317 267.842 Z" style="fill: rgb(216, 216, 216);" bx:shape="n-gon 117.317 270.729 5.774 5.774 6 0 1@346142b6"/>
  <path d="M 111.067 275.78 L 116.067 278.667 L 116.067 284.441 L 111.067 287.328 L 106.067 284.441 L 106.067 278.667 Z" style="fill: rgb(255, 128, 0);" bx:shape="n-gon 111.067 281.554 5.774 5.774 6 0 1@873c3eed"/>
  <path d="M 167.317 286.605 L 172.317 289.492 L 172.317 295.266 L 167.317 298.153 L 162.317 295.266 L 162.317 289.492 Z" style="fill: rgb(0, 0, 255);" bx:shape="n-gon 167.317 292.379 5.774 5.774 6 0 1@986bcf31"/>
  <path d="M 192.317 286.605 L 197.317 289.492 L 197.317 295.266 L 192.317 298.153 L 187.317 295.266 L 187.317 289.492 Z" style="fill: rgb(255, 255, 0);" bx:shape="n-gon 192.317 292.379 5.774 5.774 6 0 1@6dc46259"/>
  <path d="M 198.567 275.78 L 203.567 278.667 L 203.567 284.441 L 198.567 287.328 L 193.567 284.441 L 193.567 278.667 Z" style="fill: rgb(216, 216, 216);" bx:shape="n-gon 198.567 281.554 5.774 5.774 6 0 1@4998f331"/>
  <path d="M 204.817 286.605 L 209.817 289.492 L 209.817 295.266 L 204.817 298.153 L 199.817 295.266 L 199.817 289.492 Z" style="fill: rgb(216, 216, 216);" bx:shape="n-gon 204.817 292.379 5.774 5.774 6 0 1@daad2476"/>
  <path d="M 186.067 275.78 L 191.067 278.667 L 191.067 284.441 L 186.067 287.328 L 181.067 284.441 L 181.067 278.667 Z" style="fill: rgb(216, 216, 216);" bx:shape="n-gon 186.067 281.554 5.774 5.774 6 0 1@b52042f1"/>
  <path d="M 198.567 275.78 L 203.567 278.667 L 203.567 284.441 L 198.567 287.328 L 193.567 284.441 L 193.567 278.667 Z" style="fill: rgb(216, 216, 216);" bx:shape="n-gon 198.567 281.554 5.774 5.774 6 0 1@4998f331"/>
  <path d="M 204.817 286.605 L 209.817 289.492 L 209.817 295.266 L 204.817 298.153 L 199.817 295.266 L 199.817 289.492 Z" style="fill: rgb(216, 216, 216);" bx:shape="n-gon 204.817 292.379 5.774 5.774 6 0 1@daad2476"/>
  <path d="M 179.817 286.605 L 184.817 289.492 L 184.817 295.266 L 179.817 298.153 L 174.817 295.266 L 174.817 289.492 Z" style="fill: rgb(216, 216, 216);" bx:shape="n-gon 179.817 292.379 5.774 5.774 6 0 1@2ff97797"/>
  <path d="M 173.567 275.78 L 178.567 278.667 L 178.567 284.441 L 173.567 287.328 L 168.567 284.441 L 168.567 278.667 Z" style="fill: rgb(255, 128, 0);" bx:shape="n-gon 173.567 281.554 5.774 5.774 6 0 1@40c2f910"/>
  <path d="M 154.817 264.955 L 159.817 267.842 L 159.817 273.616 L 154.817 276.503 L 149.817 273.616 L 149.817 267.842 Z" style="fill: rgb(216, 216, 216);" bx:shape="n-gon 154.817 270.729 5.774 5.774 6 0 1@44ce991a"/>
  <path d="M 142.317 264.955 L 147.317 267.842 L 147.317 273.616 L 142.317 276.503 L 137.317 273.616 L 137.317 267.842 Z" style="fill: rgb(255, 0, 0);" bx:shape="n-gon 142.317 270.729 5.774 5.774 6 0 1@e1be1bd4"/>
  <path d="M 129.817 264.955 L 134.817 267.842 L 134.817 273.616 L 129.817 276.503 L 124.817 273.616 L 124.817 267.842 Z" style="fill: rgb(216, 216, 216);" bx:shape="n-gon 129.817 270.729 5.774 5.774 6 0 1@23c61846"/>
  <path d="M 204.817 264.955 L 209.817 267.842 L 209.817 273.616 L 204.817 276.503 L 199.817 273.616 L 199.817 267.842 Z" style="fill: rgb(216, 216, 216);" bx:shape="n-gon 204.817 270.729 5.774 5.774 6 0 1@02faa04a"/>
  <path d="M 192.317 264.955 L 197.317 267.842 L 197.317 273.616 L 192.317 276.503 L 187.317 273.616 L 187.317 267.842 Z" style="fill: rgb(216, 216, 216);" bx:shape="n-gon 192.317 270.729 5.774 5.774 6 0 1@8d212c35"/>
  <path d="M 179.817 264.955 L 184.817 267.842 L 184.817 273.616 L 179.817 276.503 L 174.817 273.616 L 174.817 267.842 Z" style="fill: rgb(216, 216, 216);" bx:shape="n-gon 179.817 270.729 5.774 5.774 6 0 1@c7fd1947"/>
  <path d="M 167.317 264.955 L 172.317 267.842 L 172.317 273.616 L 167.317 276.503 L 162.317 273.616 L 162.317 267.842 Z" style="fill: rgb(216, 216, 216);" bx:shape="n-gon 167.317 270.729 5.774 5.774 6 0 1@38725951"/>
  <path d="M 248.567 297.431 L 253.567 300.318 L 253.567 306.092 L 248.567 308.979 L 243.567 306.092 L 243.567 300.318 Z" style="fill: rgb(216, 216, 216);" bx:shape="n-gon 248.567 303.205 5.774 5.774 6 0 1@75786f62"/>
  <path d="M 261.067 297.431 L 266.067 300.318 L 266.067 306.092 L 261.067 308.979 L 256.067 306.092 L 256.067 300.318 Z" style="fill: rgb(0, 0, 255);" bx:shape="n-gon 261.067 303.205 5.774 5.774 6 0 1@f50d7060"/>
  <path d="M 236.067 297.431 L 241.067 300.318 L 241.067 306.092 L 236.067 308.979 L 231.067 306.092 L 231.067 300.318 Z" style="fill: rgb(255, 0, 0);" bx:shape="n-gon 236.067 303.205 5.774 5.774 6 0 1@23012ef4"/>
  <path d="M 248.567 297.431 L 253.567 300.318 L 253.567 306.092 L 248.567 308.979 L 243.567 306.092 L 243.567 300.318 Z" style="fill: rgb(255, 255, 0);" bx:shape="n-gon 248.567 303.205 5.774 5.774 6 0 1@75786f62"/>
  <path d="M 223.567 297.431 L 228.567 300.318 L 228.567 306.092 L 223.567 308.979 L 218.567 306.092 L 218.567 300.318 Z" style="fill: rgb(0, 255, 0);" bx:shape="n-gon 223.567 303.205 5.774 5.774 6 0 1@38446219"/>
  <path d="M 217.317 286.605 L 222.317 289.492 L 222.317 295.266 L 217.317 298.153 L 212.317 295.266 L 212.317 289.492 Z" style="fill: rgb(216, 216, 216);" bx:shape="n-gon 217.317 292.379 5.774 5.774 6 0 1@c55acc6f"/>
  <path d="M 211.067 297.431 L 216.067 300.318 L 216.067 306.092 L 211.067 308.979 L 206.067 306.092 L 206.067 300.318 Z" style="fill: rgb(216, 216, 216);" bx:shape="n-gon 211.067 303.205 5.774 5.774 6 0 1@8e623743"/>
  <path d="M 292.317 308.257 L 297.317 311.144 L 297.317 316.918 L 292.317 319.805 L 287.317 316.918 L 287.317 311.144 Z" style="fill: rgb(216, 216, 216);" bx:shape="n-gon 292.317 314.031 5.774 5.774 6 0 1@e53d6a0e"/>
  <path d="M 298.567 297.431 L 303.567 300.318 L 303.567 306.092 L 298.567 308.979 L 293.567 306.092 L 293.567 300.318 Z" style="fill: rgb(216, 216, 216);" bx:shape="n-gon 298.567 303.205 5.774 5.774 6 0 1@443c3573"/>
  <path d="M 304.817 308.257 L 309.817 311.144 L 309.817 316.918 L 304.817 319.805 L 299.817 316.918 L 299.817 311.144 Z" style="fill: rgb(216, 216, 216);" bx:shape="n-gon 304.817 314.031 5.774 5.774 6 0 1@8c265c13"/>
  <path d="M 286.067 297.431 L 291.067 300.318 L 291.067 306.092 L 286.067 308.979 L 281.067 306.092 L 281.067 300.318 Z" style="fill: rgb(255, 128, 0);" bx:shape="n-gon 286.067 303.205 5.774 5.774 6 0 1@f1cb0743"/>
  <path d="M 298.567 297.431 L 303.567 300.318 L 303.567 306.092 L 298.567 308.979 L 293.567 306.092 L 293.567 300.318 Z" style="fill: rgb(0, 0, 255);" bx:shape="n-gon 298.567 303.205 5.774 5.774 6 0 1@443c3573"/>
  <path d="M 304.817 308.257 L 309.817 311.144 L 309.817 316.918 L 304.817 319.805 L 299.817 316.918 L 299.817 311.144 Z" style="fill: rgb(255, 128, 0);" bx:shape="n-gon 304.817 314.031 5.774 5.774 6 0 1@8c265c13"/>
  <path d="M 273.567 297.431 L 278.567 300.318 L 278.567 306.092 L 273.567 308.979 L 268.567 306.092 L 268.567 300.318 Z" style="fill: rgb(255, 0, 0);" bx:shape="n-gon 273.567 303.205 5.774 5.774 6 0 1@343a4094"/>
  <path d="M 242.317 286.605 L 247.317 289.492 L 247.317 295.266 L 242.317 298.153 L 237.317 295.266 L 237.317 289.492 Z" style="fill: rgb(0, 255, 0);" bx:shape="n-gon 242.317 292.379 5.774 5.774 6 0 1@44627db9"/>
  <path d="M 248.567 275.78 L 253.567 278.667 L 253.567 284.441 L 248.567 287.328 L 243.567 284.441 L 243.567 278.667 Z" style="fill: rgb(216, 216, 216);" bx:shape="n-gon 248.567 281.554 5.774 5.774 6 0 1@2fbc9421"/>
  <path d="M 254.817 286.605 L 259.817 289.492 L 259.817 295.266 L 254.817 298.153 L 249.817 295.266 L 249.817 289.492 Z" style="fill: rgb(216, 216, 216);" bx:shape="n-gon 254.817 292.379 5.774 5.774 6 0 1@c89a4727"/>
  <path d="M 261.067 275.78 L 266.067 278.667 L 266.067 284.441 L 261.067 287.328 L 256.067 284.441 L 256.067 278.667 Z" style="fill: rgb(216, 216, 216);" bx:shape="n-gon 261.067 281.554 5.774 5.774 6 0 1@efcc4357"/>
  <path d="M 236.067 275.78 L 241.067 278.667 L 241.067 284.441 L 236.067 287.328 L 231.067 284.441 L 231.067 278.667 Z" style="fill: rgb(255, 255, 0);" bx:shape="n-gon 236.067 281.554 5.774 5.774 6 0 1@63f1cc2b"/>
  <path d="M 248.567 275.78 L 253.567 278.667 L 253.567 284.441 L 248.567 287.328 L 243.567 284.441 L 243.567 278.667 Z" style="fill: rgb(216, 216, 216);" bx:shape="n-gon 248.567 281.554 5.774 5.774 6 0 1@2fbc9421"/>
  <path d="M 254.817 286.605 L 259.817 289.492 L 259.817 295.266 L 254.817 298.153 L 249.817 295.266 L 249.817 289.492 Z" style="fill: rgb(216, 216, 216);" bx:shape="n-gon 254.817 292.379 5.774 5.774 6 0 1@c89a4727"/>
  <path d="M 229.817 286.605 L 234.817 289.492 L 234.817 295.266 L 229.817 298.153 L 224.817 295.266 L 224.817 289.492 Z" style="fill: rgb(0, 0, 255);" bx:shape="n-gon 229.817 292.379 5.774 5.774 6 0 1@16b0f58f"/>
  <path d="M 223.567 275.78 L 228.567 278.667 L 228.567 284.441 L 223.567 287.328 L 218.567 284.441 L 218.567 278.667 Z" style="fill: rgb(255, 128, 0);" bx:shape="n-gon 223.567 281.554 5.774 5.774 6 0 1@71b8f3cc"/>
  <path d="M 217.317 264.955 L 222.317 267.842 L 222.317 273.616 L 217.317 276.503 L 212.317 273.616 L 212.317 267.842 Z" style="fill: rgb(216, 216, 216);" bx:shape="n-gon 217.317 270.729 5.774 5.774 6 0 1@bc144013"/>
  <path d="M 211.067 275.78 L 216.067 278.667 L 216.067 284.441 L 211.067 287.328 L 206.067 284.441 L 206.067 278.667 Z" style="fill: rgb(255, 255, 0);" bx:shape="n-gon 211.067 281.554 5.774 5.774 6 0 1@ecdc7a8a"/>
  <path d="M 267.317 286.605 L 272.317 289.492 L 272.317 295.266 L 267.317 298.153 L 262.317 295.266 L 262.317 289.492 Z" style="fill: rgb(255, 128, 0);" bx:shape="n-gon 267.317 292.379 5.774 5.774 6 0 1@b3055584"/>
  <path d="M 292.317 286.605 L 297.317 289.492 L 297.317 295.266 L 292.317 298.153 L 287.317 295.266 L 287.317 289.492 Z" style="fill: rgb(216, 216, 216);" bx:shape="n-gon 292.317 292.379 5.774 5.774 6 0 1@1f09d8d4"/>
  <path d="M 298.567 275.78 L 303.567 278.667 L 303.567 284.441 L 298.567 287.328 L 293.567 284.441 L 293.567 278.667 Z" style="fill: rgb(216, 216, 216);" bx:shape="n-gon 298.567 281.554 5.774 5.774 6 0 1@8dd75052"/>
  <path d="M 304.817 286.605 L 309.817 289.492 L 309.817 295.266 L 304.817 298.153 L 299.817 295.266 L 299.817 289.492 Z" style="fill: rgb(216, 216, 216);" bx:shape="n-gon 304.817 292.379 5.774 5.774 6 0 1@9bab5a6d"/>
  <path d="M 286.067 275.78 L 291.067 278.667 L 291.067 284.441 L 286.067 287.328 L 281.067 284.441 L 281.067 278.667 Z" style="fill: rgb(216, 216, 216);" bx:shape="n-gon 286.067 281.554 5.774 5.774 6 0 1@223a66e6"/>
  <path d="M 298.567 275.78 L 303.567 278.667 L 303.567 284.441 L 298.567 287.328 L 293.567 284.441 L 293.567 278.667 Z" style="fill: rgb(216, 216, 216);" bx:shape="n-gon 298.567 281.554 5.774 5.774 6 0 1@8dd75052"/>
  <path d="M 304.817 286.605 L 309.817 289.492 L 309.817 295.266 L 304.817 298.153 L 299.817 295.266 L 299.817 289.492 Z" style="fill: rgb(216, 216, 216);" bx:shape="n-gon 304.817 292.379 5.774 5.774 6 0 1@9bab5a6d"/>
  <path d="M 279.817 286.605 L 284.817 289.492 L 284.817 295.266 L 279.817 298.153 L 274.817 295.266 L 274.817 289.492 Z" style="fill: rgb(255, 255, 0);" bx:shape="n-gon 279.817 292.379 5.774 5.774 6 0 1@92815c82"/>
  <path d="M 273.567 275.78 L 278.567 278.667 L 278.567 284.441 L 273.567 287.328 L 268.567 284.441 L 268.567 278.667 Z" style="fill: rgb(216, 216, 216);" bx:shape="n-gon 273.567 281.554 5.774 5.774 6 0 1@3f571f47"/>
  <path d="M 254.817 264.955 L 259.817 267.842 L 259.817 273.616 L 254.817 276.503 L 249.817 273.616 L 249.817 267.842 Z" style="fill: rgb(0, 255, 0);" bx:shape="n-gon 254.817 270.729 5.774 5.774 6 0 1@64bd5203"/>
  <path d="M 242.317 264.955 L 247.317 267.842 L 247.317 273.616 L 242.317 276.503 L 237.317 273.616 L 237.317 267.842 Z" style="fill: rgb(216, 216, 216);" bx:shape="n-gon 242.317 270.729 5.774 5.774 6 0 1@44fdfc8d"/>
  <path d="M 229.817 264.955 L 234.817 267.842 L 234.817 273.616 L 229.817 276.503 L 224.817 273.616 L 224.817 267.842 Z" style="fill: rgb(255, 128, 0);" bx:shape="n-gon 229.817 270.729 5.774 5.774 6 0 1@b404d107"/>
  <path d="M 304.817 264.955 L 309.817 267.842 L 309.817 273.616 L 304.817 276.503 L 299.817 273.616 L 299.817 267.842 Z" style="fill: rgb(255, 0, 0);" bx:shape="n-gon 304.817 270.729 5.774 5.774 6 0 1@d5de355d"/>
  <path d="M 292.317 264.955 L 297.317 267.842 L 297.317 273.616 L 292.317 276.503 L 287.317 273.616 L 287.317 267.842 Z" style="fill: rgb(0, 255, 0);" bx:shape="n-gon 292.317 270.729 5.774 5.774 6 0 1@87b74db8"/>
  <path d="M 279.817 264.955 L 284.817 267.842 L 284.817 273.616 L 279.817 276.503 L 274.817 273.616 L 274.817 267.842 Z" style="fill: rgb(216, 216, 216);" bx:shape="n-gon 279.817 270.729 5.774 5.774 6 0 1@dc6c0a52"/>
  <path d="M 267.317 264.955 L 272.317 267.842 L 272.317 273.616 L 267.317 276.503 L 262.317 273.616 L 262.317 267.842 Z" style="fill: rgb(216, 216, 216);" bx:shape="n-gon 267.317 270.729 5.774 5.774 6 0 1@e30bccbc"/>
  <path d="M 323.567 319.082 L 328.567 321.969 L 328.567 327.743 L 323.567 330.63 L 318.567 327.743 L 318.567 321.969 Z" style="fill: rgb(255, 128, 0);" bx:shape="n-gon 323.567 324.856 5.774 5.774 6 0 1@218c24ad"/>
  <path d="M 317.317 308.256 L 322.317 311.143 L 322.317 316.917 L 317.317 319.804 L 312.317 316.917 L 312.317 311.143 Z" style="fill: rgb(216, 216, 216);" bx:shape="n-gon 317.317 314.03 5.774 5.774 6 0 1@a7ecdaa5"/>
  <path d="M 311.067 319.081 L 316.067 321.968 L 316.067 327.742 L 311.067 330.629 L 306.067 327.742 L 306.067 321.968 Z" style="fill: rgb(0, 255, 0);" bx:shape="n-gon 311.067 324.855 5.774 5.774 6 0 1@62bc9b91"/>
  <path d="M 348.567 297.431 L 353.567 300.318 L 353.567 306.092 L 348.567 308.979 L 343.567 306.092 L 343.567 300.318 Z" style="fill: rgb(216, 216, 216);" bx:shape="n-gon 348.567 303.205 5.774 5.774 6 0 1@a225da7d"/>
  <path d="M 336.067 297.43 L 341.067 300.317 L 341.067 306.091 L 336.067 308.978 L 331.067 306.091 L 331.067 300.317 Z" style="fill: rgb(255, 128, 0);" bx:shape="n-gon 336.067 303.204 5.774 5.774 6 0 1@f692d624"/>
  <path d="M 348.567 297.431 L 353.567 300.318 L 353.567 306.092 L 348.567 308.979 L 343.567 306.092 L 343.567 300.318 Z" style="fill: rgb(0, 0, 255);" bx:shape="n-gon 348.567 303.205 5.774 5.774 6 0 1@a225da7d"/>
  <path d="M 329.817 308.256 L 334.817 311.143 L 334.817 316.917 L 329.817 319.804 L 324.817 316.917 L 324.817 311.143 Z" style="fill: rgb(255, 255, 0);" bx:shape="n-gon 329.817 314.03 5.774 5.774 6 0 1@dbc61c6d"/>
  <path d="M 323.567 297.431 L 328.567 300.318 L 328.567 306.092 L 323.567 308.979 L 318.567 306.092 L 318.567 300.318 Z" style="fill: rgb(216, 216, 216);" bx:shape="n-gon 323.567 303.205 5.774 5.774 6 0 1@7c72d6ea"/>
  <path d="M 317.317 286.605 L 322.317 289.492 L 322.317 295.266 L 317.317 298.153 L 312.317 295.266 L 312.317 289.492 Z" style="fill: rgb(216, 216, 216);" bx:shape="n-gon 317.317 292.379 5.774 5.774 6 0 1@efade480"/>
  <path d="M 311.067 297.43 L 316.067 300.317 L 316.067 306.091 L 311.067 308.978 L 306.067 306.091 L 306.067 300.317 Z" style="fill: rgb(216, 216, 216);" bx:shape="n-gon 311.067 303.204 5.774 5.774 6 0 1@354b73dd"/>
  <path d="M 342.317 286.605 L 347.317 289.492 L 347.317 295.266 L 342.317 298.153 L 337.317 295.266 L 337.317 289.492 Z" style="fill: rgb(216, 216, 216);" bx:shape="n-gon 342.317 292.379 5.774 5.774 6 0 1@ca5169d2"/>
  <path d="M 348.567 275.78 L 353.567 278.667 L 353.567 284.441 L 348.567 287.328 L 343.567 284.441 L 343.567 278.667 Z" style="fill: rgb(216, 216, 216);" bx:shape="n-gon 348.567 281.554 5.774 5.774 6 0 1@30ea74c0"/>
  <path d="M 354.817 286.605 L 359.817 289.492 L 359.817 295.266 L 354.817 298.153 L 349.817 295.266 L 349.817 289.492 Z" style="fill: rgb(216, 216, 216);" bx:shape="n-gon 354.817 292.379 5.774 5.774 6 0 1@56a53b34"/>
  <path d="M 361.067 275.78 L 366.067 278.667 L 366.067 284.441 L 361.067 287.328 L 356.067 284.441 L 356.067 278.667 Z" style="fill: rgb(216, 216, 216);" bx:shape="n-gon 361.067 281.554 5.774 5.774 6 0 1@e44c4c42"/>
  <path d="M 336.067 275.779 L 341.067 278.666 L 341.067 284.44 L 336.067 287.327 L 331.067 284.44 L 331.067 278.666 Z" style="fill: rgb(216, 216, 216);" bx:shape="n-gon 336.067 281.553 5.774 5.774 6 0 1@60d6df52"/>
  <path d="M 348.567 275.78 L 353.567 278.667 L 353.567 284.441 L 348.567 287.328 L 343.567 284.441 L 343.567 278.667 Z" style="fill: rgb(0, 0, 255);" bx:shape="n-gon 348.567 281.554 5.774 5.774 6 0 1@30ea74c0"/>
  <path d="M 354.817 286.605 L 359.817 289.492 L 359.817 295.266 L 354.817 298.153 L 349.817 295.266 L 349.817 289.492 Z" style="fill: rgb(216, 216, 216);" bx:shape="n-gon 354.817 292.379 5.774 5.774 6 0 1@56a53b34"/>
  <path d="M 329.817 286.605 L 334.817 289.492 L 334.817 295.266 L 329.817 298.153 L 324.817 295.266 L 324.817 289.492 Z" style="fill: rgb(216, 216, 216);" bx:shape="n-gon 329.817 292.379 5.774 5.774 6 0 1@8ecc17fc"/>
  <path d="M 323.567 275.78 L 328.567 278.667 L 328.567 284.441 L 323.567 287.328 L 318.567 284.441 L 318.567 278.667 Z" style="fill: rgb(216, 216, 216);" bx:shape="n-gon 323.567 281.554 5.774 5.774 6 0 1@da114909"/>
  <path d="M 317.317 264.954 L 322.317 267.841 L 322.317 273.615 L 317.317 276.502 L 312.317 273.615 L 312.317 267.841 Z" style="fill: rgb(216, 216, 216);" bx:shape="n-gon 317.317 270.728 5.774 5.774 6 0 1@60554d23"/>
  <path d="M 311.067 275.779 L 316.067 278.666 L 316.067 284.44 L 311.067 287.327 L 306.067 284.44 L 306.067 278.666 Z" style="fill: rgb(216, 216, 216);" bx:shape="n-gon 311.067 281.553 5.774 5.774 6 0 1@87e1618b"/>
  <path d="M 367.317 286.605 L 372.317 289.492 L 372.317 295.266 L 367.317 298.153 L 362.317 295.266 L 362.317 289.492 Z" style="fill: rgb(0, 255, 0);" bx:shape="n-gon 367.317 292.379 5.774 5.774 6 0 1@9c407a5f"/>
  <path d="M 392.317 286.605 L 397.317 289.492 L 397.317 295.266 L 392.317 298.153 L 387.317 295.266 L 387.317 289.492 Z" style="fill: rgb(255, 255, 0);" bx:shape="n-gon 392.317 292.379 5.774 5.774 6 0 1@5bec80b7"/>
  <path d="M 398.567 275.78 L 403.567 278.667 L 403.567 284.441 L 398.567 287.328 L 393.567 284.441 L 393.567 278.667 Z" style="fill: rgb(216, 216, 216);" bx:shape="n-gon 398.567 281.554 5.774 5.774 6 0 1@352a6bff"/>
  <path d="M 386.067 275.779 L 391.067 278.666 L 391.067 284.44 L 386.067 287.327 L 381.067 284.44 L 381.067 278.666 Z" style="fill: rgb(255, 0, 0);" bx:shape="n-gon 386.067 281.553 5.774 5.774 6 0 1@f3cfe799"/>
  <path d="M 398.567 275.78 L 403.567 278.667 L 403.567 284.441 L 398.567 287.328 L 393.567 284.441 L 393.567 278.667 Z" style="fill: rgb(255, 128, 0);" bx:shape="n-gon 398.567 281.554 5.774 5.774 6 0 1@352a6bff"/>
  <path d="M 379.817 286.605 L 384.817 289.492 L 384.817 295.266 L 379.817 298.153 L 374.817 295.266 L 374.817 289.492 Z" style="fill: rgb(255, 128, 0);" bx:shape="n-gon 379.817 292.379 5.774 5.774 6 0 1@7e30b6f9"/>
  <path d="M 373.567 275.78 L 378.567 278.667 L 378.567 284.441 L 373.567 287.328 L 368.567 284.441 L 368.567 278.667 Z" style="fill: rgb(255, 128, 0);" bx:shape="n-gon 373.567 281.554 5.774 5.774 6 0 1@af7e357e"/>
  <path d="M 354.817 264.954 L 359.817 267.841 L 359.817 273.615 L 354.817 276.502 L 349.817 273.615 L 349.817 267.841 Z" style="fill: rgb(255, 255, 0);" bx:shape="n-gon 354.817 270.728 5.774 5.774 6 0 1@4402ede3"/>
  <path d="M 342.317 264.954 L 347.317 267.841 L 347.317 273.615 L 342.317 276.502 L 337.317 273.615 L 337.317 267.841 Z" style="fill: rgb(216, 216, 216);" bx:shape="n-gon 342.317 270.728 5.774 5.774 6 0 1@0b58c1b9"/>
  <path d="M 329.817 264.954 L 334.817 267.841 L 334.817 273.615 L 329.817 276.502 L 324.817 273.615 L 324.817 267.841 Z" style="fill: rgb(216, 216, 216);" bx:shape="n-gon 329.817 270.728 5.774 5.774 6 0 1@09eb0e67"/>
  <path d="M 392.317 264.954 L 397.317 267.841 L 397.317 273.615 L 392.317 276.502 L 387.317 273.615 L 387.317 267.841 Z" style="fill: rgb(0, 255, 0);" bx:shape="n-gon 392.317 270.728 5.774 5.774 6 0 1@464bdc18"/>
  <path d="M 379.817 264.954 L 384.817 267.841 L 384.817 273.615 L 379.817 276.502 L 374.817 273.615 L 374.817 267.841 Z" style="fill: rgb(255, 255, 0);" bx:shape="n-gon 379.817 270.728 5.774 5.774 6 0 1@1a7aa94e"/>
  <path d="M 367.317 264.954 L 372.317 267.841 L 372.317 273.615 L 367.317 276.502 L 362.317 273.615 L 362.317 267.841 Z" style="fill: rgb(216, 216, 216);" bx:shape="n-gon 367.317 270.728 5.774 5.774 6 0 1@6323970c"/>
  <path id="path2220" style="fill-rule: evenodd; fill: none; stroke: rgb(0, 0, 0);" d="M 14.69 263.007 C 14.485 282.731 16.184 296.112 21.545 297.285 L 49.33 300.893 C 68.985 309.969 89.471 321.255 107.422 325.79 C 121.209 328.536 135.798 330.214 151.442 330.481 C 182.924 329.979 217.943 332.127 240.203 324.708 C 261.406 314.915 282.295 304.492 302.265 292.233 C 329.182 290.397 384.125 282.909 392.11 274.192 C 396.091 268.846 399.261 263.094 400.77 256.512 C 404.259 255.07 404.012 249.892 402.574 243.522 L 402.213 230.533 L 388.862 225.12 L 362.522 221.873 L 355.667 220.069 C 345.729 196.754 308.829 199.644 298.658 221.151 L 290.359 219.708 L 142.422 221.151 L 140.618 218.625 L 129.072 218.986 C 121.321 195.186 77.079 193.007 70.257 222.234 L 64.484 222.234 L 47.164 224.759 L 20.825 228.367 C 13.644 232.628 10.651 235.842 10 238.471 L 11.804 240.996 L 10.361 255.429 C 11.332 260.315 12.223 261.884 14.691 263.006 Z" transform="matrix(-1, 0, 0, -1, 413.567078, 531.203842)"/>
  <g transform="matrix(-2.345078, 0, 0, 2.345078, 403.590912, 9.983147)" style="">
    <g id="g-1" transform="translate(-227.51 -167.55)">
      <path id="path-1" style="fill-rule: evenodd; stroke: rgb(0, 0, 0);" d="m229.52 196.33c-0.0871-8.4109 0.63721-14.117 2.9234-14.617l11.848-1.5386c8.3816-3.8703 17.117-8.6831 24.772-10.617 5.8792-1.1707 12.1-1.8864 18.771-2.0002 13.425 0.21409 28.358-0.70172 37.85 2.4618 9.0416 4.1758 17.949 8.6206 26.465 13.848 11.478 0.78321 34.907 3.9761 38.312 7.6932 1.6978 2.2797 3.0493 4.7325 3.6927 7.5393 1.4878 0.61504 1.3828 2.8229 0.76932 5.5391l-0.15386 5.5391-5.693 2.308-11.232 1.3848-2.9234 0.76932c-4.2378 9.9421-19.973 8.7095-24.31-0.46159l-3.5389 0.61546-63.084-0.61546-0.76932 1.077-4.9236-0.15386c-3.3049 10.149-22.171 11.078-25.08-1.3848h-2.4618l-7.3855-1.077-11.232-1.5386c-3.0619-1.8169-4.3384-3.1874-4.6159-4.3082l0.76931-1.077-0.61545-6.1546c0.41416-2.0835 0.79405-2.7525 1.8464-3.2311z"/>
    </g>
  </g>
  <path d="M 200 200 H 218 L 218 190 L 250 210 L 218 230 L 218 220 H 200 V 200 Z" style="fill: rgb(216, 216, 216);" transform="matrix(0, 1, -1, 0, 416.783569, -60)" bx:shape="arrow 200 190 50 40 20 32 0 1@38d6c378"/>
</svg>