<?xml version="1.0" encoding="utf-8"?>
<svg viewBox="0 0 450 400" xmlns="http://www.w3.org/2000/svg" xmlns:bx="https://boxy-svg.com">
  <defs>
    <bx:grid x="0" y="0" width="10" height="10"/>
  </defs>
  <g>
    <path d="M 45 346.416 L 65 357.963 L 65 381.057 L 45 392.604 L 25 381.057 L 25 357.963 Z" style="fill: rgb(216, 216, 216);" bx:shape="n-gon 45 369.51 23.094 23.094 6 0 1@c9baf5aa"/>
    <path d="M 145 346.416 L 165 357.963 L 165 381.057 L 145 392.604 L 125 381.057 L 125 357.963 Z" style="fill: rgb(216, 216, 216);" bx:shape="n-gon 145 369.51 23.094 23.094 6 0 1@f21e64c5"/>
    <path d="M 170 303.114 L 190 314.661 L 190 337.755 L 170 349.302 L 150 337.755 L 150 314.661 Z" style="fill: rgb(216, 216, 216);" bx:shape="n-gon 170 326.208 23.094 23.094 6 0 1@928179e7"/>
    <path d="M 195 346.416 L 215 357.963 L 215 381.057 L 195 392.604 L 175 381.057 L 175 357.963 Z" style="fill: rgb(216, 216, 216);" bx:shape="n-gon 195 369.51 23.094 23.094 6 0 1@0aa192ae"/>
    <path d="M 220 303.114 L 240 314.661 L 240 337.755 L 220 349.302 L 200 337.755 L 200 314.661 Z" style="fill: rgb(216, 216, 216);" bx:shape="n-gon 220 326.208 23.094 23.094 6 0 1@fbc969c3"/>
    <path d="M 120 303.113 L 140 314.66 L 140 337.754 L 120 349.301 L 100 337.754 L 100 314.66 Z" style="fill: rgb(216, 216, 216);" bx:shape="n-gon 120 326.207 23.094 23.094 6 0 1@63f67cdf"/>
    <path d="M 170 303.114 L 190 314.661 L 190 337.755 L 170 349.302 L 150 337.755 L 150 314.661 Z" style="fill: rgb(216, 216, 216);" bx:shape="n-gon 170 326.208 23.094 23.094 6 0 1@928179e7"/>
    <path d="M 195 346.416 L 215 357.963 L 215 381.057 L 195 392.604 L 175 381.057 L 175 357.963 Z" style="fill: rgb(216, 216, 216);" bx:shape="n-gon 195 369.51 23.094 23.094 6 0 1@0aa192ae"/>
    <path d="M 95 346.415 L 115 357.962 L 115 381.056 L 95 392.603 L 75 381.056 L 75 357.962 Z" style="fill: rgb(216, 216, 216);" bx:shape="n-gon 95 369.509 23.094 23.094 6 0 1@7c710b67"/>
    <path d="M 70 303.114 L 90 314.661 L 90 337.755 L 70 349.302 L 50 337.755 L 50 314.661 Z" style="fill: rgb(216, 216, 216);" bx:shape="n-gon 70 326.208 23.094 23.094 6 0 1@529d8250"/>
    <path d="M 45 259.812 L 65 271.359 L 65 294.453 L 45 306 L 25 294.453 L 25 271.359 Z" style="fill: rgb(216, 216, 216);" bx:shape="n-gon 45 282.906 23.094 23.094 6 0 1@51048673"/>
    <path d="M 20 303.113 L 40 314.66 L 40 337.754 L 20 349.301 L 0 337.754 L 0 314.66 Z" style="fill: rgb(216, 216, 216);" bx:shape="n-gon 20 326.207 23.094 23.094 6 0 1@03a35dce"/>
    <path d="M 245 346.416 L 265 357.963 L 265 381.057 L 245 392.604 L 225 381.057 L 225 357.963 Z" style="fill: rgb(216, 216, 216);" bx:shape="n-gon 245 369.51 23.094 23.094 6 0 1@e98b0982"/>
    <path d="M 345 346.416 L 365 357.963 L 365 381.057 L 345 392.604 L 325 381.057 L 325 357.963 Z" style="fill: rgb(216, 216, 216);" bx:shape="n-gon 345 369.51 23.094 23.094 6 0 1@411418b3"/>
    <path d="M 370 303.114 L 390 314.661 L 390 337.755 L 370 349.302 L 350 337.755 L 350 314.661 Z" style="fill: rgb(216, 216, 216);" bx:shape="n-gon 370 326.208 23.094 23.094 6 0 1@8f24edb1"/>
    <path d="M 395 346.416 L 415 357.963 L 415 381.057 L 395 392.604 L 375 381.057 L 375 357.963 Z" style="fill: rgb(216, 216, 216);" bx:shape="n-gon 395 369.51 23.094 23.094 6 0 1@2ac65a58"/>
    <path d="M 420 303.114 L 440 314.661 L 440 337.755 L 420 349.302 L 400 337.755 L 400 314.661 Z" style="fill: rgb(216, 216, 216);" bx:shape="n-gon 420 326.208 23.094 23.094 6 0 1@a2c54a11"/>
    <path d="M 320 303.113 L 340 314.66 L 340 337.754 L 320 349.301 L 300 337.754 L 300 314.66 Z" style="fill: rgb(216, 216, 216);" bx:shape="n-gon 320 326.207 23.094 23.094 6 0 1@a16123b9"/>
    <path d="M 370 303.114 L 390 314.661 L 390 337.755 L 370 349.302 L 350 337.755 L 350 314.661 Z" style="fill: rgb(216, 216, 216);" bx:shape="n-gon 370 326.208 23.094 23.094 6 0 1@8f24edb1"/>
    <path d="M 395 346.416 L 415 357.963 L 415 381.057 L 395 392.604 L 375 381.057 L 375 357.963 Z" style="fill: rgb(216, 216, 216);" bx:shape="n-gon 395 369.51 23.094 23.094 6 0 1@2ac65a58"/>
    <path d="M 295 346.415 L 315 357.962 L 315 381.056 L 295 392.603 L 275 381.056 L 275 357.962 Z" style="fill: rgb(216, 216, 216);" bx:shape="n-gon 295 369.509 23.094 23.094 6 0 1@fb7f5ec3"/>
    <path d="M 270 303.114 L 290 314.661 L 290 337.755 L 270 349.302 L 250 337.755 L 250 314.661 Z" style="fill: rgb(216, 216, 216);" bx:shape="n-gon 270 326.208 23.094 23.094 6 0 1@85473d7a"/>
    <path d="M 145 259.812 L 165 271.359 L 165 294.453 L 145 306 L 125 294.453 L 125 271.359 Z" style="fill: rgb(216, 216, 216);" bx:shape="n-gon 145 282.906 23.094 23.094 6 0 1@8a972184"/>
    <path d="M 170 216.51 L 190 228.057 L 190 251.151 L 170 262.698 L 150 251.151 L 150 228.057 Z" style="fill: rgb(216, 216, 216);" bx:shape="n-gon 170 239.604 23.094 23.094 6 0 1@a7326283"/>
    <path d="M 195 259.812 L 215 271.359 L 215 294.453 L 195 306 L 175 294.453 L 175 271.359 Z" style="fill: rgb(216, 216, 216);" bx:shape="n-gon 195 282.906 23.094 23.094 6 0 1@911cb219"/>
    <path d="M 220 216.51 L 240 228.057 L 240 251.151 L 220 262.698 L 200 251.151 L 200 228.057 Z" style="fill: rgb(216, 216, 216);" bx:shape="n-gon 220 239.604 23.094 23.094 6 0 1@0d001207"/>
    <path d="M 120 216.509 L 140 228.056 L 140 251.15 L 120 262.697 L 100 251.15 L 100 228.056 Z" style="fill: rgb(216, 216, 216);" bx:shape="n-gon 120 239.603 23.094 23.094 6 0 1@762b4512"/>
    <path d="M 170 216.51 L 190 228.057 L 190 251.151 L 170 262.698 L 150 251.151 L 150 228.057 Z" style="fill: rgb(216, 216, 216);" bx:shape="n-gon 170 239.604 23.094 23.094 6 0 1@a7326283"/>
    <path d="M 195 259.812 L 215 271.359 L 215 294.453 L 195 306 L 175 294.453 L 175 271.359 Z" style="fill: rgb(216, 216, 216);" bx:shape="n-gon 195 282.906 23.094 23.094 6 0 1@911cb219"/>
    <path d="M 95 259.811 L 115 271.358 L 115 294.452 L 95 305.999 L 75 294.452 L 75 271.358 Z" style="fill: rgb(216, 216, 216);" bx:shape="n-gon 95 282.905 23.094 23.094 6 0 1@50cf083e"/>
    <path d="M 70 216.51 L 90 228.057 L 90 251.151 L 70 262.698 L 50 251.151 L 50 228.057 Z" style="fill: rgb(216, 216, 216);" bx:shape="n-gon 70 239.604 23.094 23.094 6 0 1@7978002e"/>
    <path d="M 45 173.208 L 65 184.755 L 65 207.849 L 45 219.396 L 25 207.849 L 25 184.755 Z" style="fill: rgb(216, 216, 216);" bx:shape="n-gon 45 196.302 23.094 23.094 6 0 1@70be6a38"/>
    <path d="M 20 216.509 L 40 228.056 L 40 251.15 L 20 262.697 L 0 251.15 L 0 228.056 Z" style="fill: rgb(216, 216, 216);" bx:shape="n-gon 20 239.603 23.094 23.094 6 0 1@5d26c10d"/>
    <path d="M 245 259.812 L 265 271.359 L 265 294.453 L 245 306 L 225 294.453 L 225 271.359 Z" style="fill: rgb(216, 216, 216);" bx:shape="n-gon 245 282.906 23.094 23.094 6 0 1@07f45cd1"/>
    <path d="M 345 259.812 L 365 271.359 L 365 294.453 L 345 306 L 325 294.453 L 325 271.359 Z" style="fill: rgb(216, 216, 216);" bx:shape="n-gon 345 282.906 23.094 23.094 6 0 1@f2df15ea"/>
    <path d="M 370 216.51 L 390 228.057 L 390 251.151 L 370 262.698 L 350 251.151 L 350 228.057 Z" style="fill: rgb(216, 216, 216);" bx:shape="n-gon 370 239.604 23.094 23.094 6 0 1@f712875d"/>
    <path d="M 395 259.812 L 415 271.359 L 415 294.453 L 395 306 L 375 294.453 L 375 271.359 Z" style="fill: rgb(216, 216, 216);" bx:shape="n-gon 395 282.906 23.094 23.094 6 0 1@6b0f2d33"/>
    <path d="M 420 216.51 L 440 228.057 L 440 251.151 L 420 262.698 L 400 251.151 L 400 228.057 Z" style="fill: rgb(216, 216, 216);" bx:shape="n-gon 420 239.604 23.094 23.094 6 0 1@8d084bd5"/>
    <path d="M 320 216.509 L 340 228.056 L 340 251.15 L 320 262.697 L 300 251.15 L 300 228.056 Z" style="fill: rgb(216, 216, 216);" bx:shape="n-gon 320 239.603 23.094 23.094 6 0 1@fc9056dc"/>
    <path d="M 370 216.51 L 390 228.057 L 390 251.151 L 370 262.698 L 350 251.151 L 350 228.057 Z" style="fill: rgb(216, 216, 216);" bx:shape="n-gon 370 239.604 23.094 23.094 6 0 1@f712875d"/>
    <path d="M 395 259.812 L 415 271.359 L 415 294.453 L 395 306 L 375 294.453 L 375 271.359 Z" style="fill: rgb(216, 216, 216);" bx:shape="n-gon 395 282.906 23.094 23.094 6 0 1@6b0f2d33"/>
    <path d="M 295 259.811 L 315 271.358 L 315 294.452 L 295 305.999 L 275 294.452 L 275 271.358 Z" style="fill: rgb(216, 216, 216);" bx:shape="n-gon 295 282.905 23.094 23.094 6 0 1@b35f2a46"/>
    <path d="M 270 216.51 L 290 228.057 L 290 251.151 L 270 262.698 L 250 251.151 L 250 228.057 Z" style="fill: rgb(216, 216, 216);" bx:shape="n-gon 270 239.604 23.094 23.094 6 0 1@dccd9c88"/>
    <path d="M 145 173.208 L 165 184.755 L 165 207.849 L 145 219.396 L 125 207.849 L 125 184.755 Z" style="fill: rgb(216, 216, 216);" bx:shape="n-gon 145 196.302 23.094 23.094 6 0 1@7c58cf1d"/>
    <path d="M 170 129.906 L 190 141.453 L 190 164.547 L 170 176.094 L 150 164.547 L 150 141.453 Z" style="fill: rgb(216, 216, 216);" bx:shape="n-gon 170 153 23.094 23.094 6 0 1@8c8f32a6"/>
    <path d="M 195 173.208 L 215 184.755 L 215 207.849 L 195 219.396 L 175 207.849 L 175 184.755 Z" style="fill: rgb(216, 216, 216);" bx:shape="n-gon 195 196.302 23.094 23.094 6 0 1@c0ee5f2c"/>
    <path d="M 220 129.906 L 240 141.453 L 240 164.547 L 220 176.094 L 200 164.547 L 200 141.453 Z" style="fill: rgb(216, 216, 216);" bx:shape="n-gon 220 153 23.094 23.094 6 0 1@f1838a26"/>
    <path d="M 120 129.905 L 140 141.452 L 140 164.546 L 120 176.093 L 100 164.546 L 100 141.452 Z" style="fill: rgb(216, 216, 216);" bx:shape="n-gon 120 152.999 23.094 23.094 6 0 1@c03912c7"/>
    <path d="M 170 129.906 L 190 141.453 L 190 164.547 L 170 176.094 L 150 164.547 L 150 141.453 Z" style="fill: rgb(216, 216, 216);" bx:shape="n-gon 170 153 23.094 23.094 6 0 1@8c8f32a6"/>
    <path d="M 195 173.208 L 215 184.755 L 215 207.849 L 195 219.396 L 175 207.849 L 175 184.755 Z" style="fill: rgb(216, 216, 216);" bx:shape="n-gon 195 196.302 23.094 23.094 6 0 1@c0ee5f2c"/>
    <path d="M 95 173.207 L 115 184.754 L 115 207.848 L 95 219.395 L 75 207.848 L 75 184.754 Z" style="fill: rgb(216, 216, 216);" bx:shape="n-gon 95 196.301 23.094 23.094 6 0 1@737e06b6"/>
    <path d="M 70 129.906 L 90 141.453 L 90 164.547 L 70 176.094 L 50 164.547 L 50 141.453 Z" style="fill: rgb(216, 216, 216);" bx:shape="n-gon 70 153 23.094 23.094 6 0 1@d34513cd"/>
    <path d="M 45 86.604 L 65 98.151 L 65 121.245 L 45 132.792 L 25 121.245 L 25 98.151 Z" style="fill: rgb(216, 216, 216);" bx:shape="n-gon 45 109.698 23.094 23.094 6 0 1@6d895267"/>
    <path d="M 20 129.905 L 40 141.452 L 40 164.546 L 20 176.093 L 0 164.546 L 0 141.452 Z" style="fill: rgb(216, 216, 216);" bx:shape="n-gon 20 152.999 23.094 23.094 6 0 1@ce5497b0"/>
    <path d="M 245 173.208 L 265 184.755 L 265 207.849 L 245 219.396 L 225 207.849 L 225 184.755 Z" style="fill: rgb(216, 216, 216);" bx:shape="n-gon 245 196.302 23.094 23.094 6 0 1@e5e9ec44"/>
    <path d="M 345 173.208 L 365 184.755 L 365 207.849 L 345 219.396 L 325 207.849 L 325 184.755 Z" style="fill: rgb(216, 216, 216);" bx:shape="n-gon 345 196.302 23.094 23.094 6 0 1@0ce7263f"/>
    <path d="M 370 129.906 L 390 141.453 L 390 164.547 L 370 176.094 L 350 164.547 L 350 141.453 Z" style="fill: rgb(216, 216, 216);" bx:shape="n-gon 370 153 23.094 23.094 6 0 1@7ce45db4"/>
    <path d="M 395 173.208 L 415 184.755 L 415 207.849 L 395 219.396 L 375 207.849 L 375 184.755 Z" style="fill: rgb(216, 216, 216);" bx:shape="n-gon 395 196.302 23.094 23.094 6 0 1@77d65eca"/>
    <path d="M 420 129.906 L 440 141.453 L 440 164.547 L 420 176.094 L 400 164.547 L 400 141.453 Z" style="fill: rgb(216, 216, 216);" bx:shape="n-gon 420 153 23.094 23.094 6 0 1@469a74c0"/>
    <path d="M 320 129.905 L 340 141.452 L 340 164.546 L 320 176.093 L 300 164.546 L 300 141.452 Z" style="fill: rgb(216, 216, 216);" bx:shape="n-gon 320 152.999 23.094 23.094 6 0 1@d08d6dad"/>
    <path d="M 370 129.906 L 390 141.453 L 390 164.547 L 370 176.094 L 350 164.547 L 350 141.453 Z" style="fill: rgb(216, 216, 216);" bx:shape="n-gon 370 153 23.094 23.094 6 0 1@7ce45db4"/>
    <path d="M 395 173.208 L 415 184.755 L 415 207.849 L 395 219.396 L 375 207.849 L 375 184.755 Z" style="fill: rgb(216, 216, 216);" bx:shape="n-gon 395 196.302 23.094 23.094 6 0 1@77d65eca"/>
    <path d="M 295 173.207 L 315 184.754 L 315 207.848 L 295 219.395 L 275 207.848 L 275 184.754 Z" style="fill: rgb(216, 216, 216);" bx:shape="n-gon 295 196.301 23.094 23.094 6 0 1@f836f294"/>
    <path d="M 270 129.906 L 290 141.453 L 290 164.547 L 270 176.094 L 250 164.547 L 250 141.453 Z" style="fill: rgb(216, 216, 216);" bx:shape="n-gon 270 153 23.094 23.094 6 0 1@975cb617"/>
    <path d="M 145 86.604 L 165 98.151 L 165 121.245 L 145 132.792 L 125 121.245 L 125 98.151 Z" style="fill: rgb(216, 216, 216);" bx:shape="n-gon 145 109.698 23.094 23.094 6 0 1@af086fc4"/>
    <path d="M 170 43.302 L 190 54.849 L 190 77.943 L 170 89.49 L 150 77.943 L 150 54.849 Z" style="fill: rgb(216, 216, 216);" bx:shape="n-gon 170 66.396 23.094 23.094 6 0 1@96122d39"/>
    <path d="M 195 86.604 L 215 98.151 L 215 121.245 L 195 132.792 L 175 121.245 L 175 98.151 Z" style="fill: rgb(216, 216, 216);" bx:shape="n-gon 195 109.698 23.094 23.094 6 0 1@f27a4e65"/>
    <path d="M 220 43.302 L 240 54.849 L 240 77.943 L 220 89.49 L 200 77.943 L 200 54.849 Z" style="fill: rgb(216, 216, 216);" bx:shape="n-gon 220 66.396 23.094 23.094 6 0 1@6b9cd641"/>
    <path d="M 120 43.301 L 140 54.848 L 140 77.942 L 120 89.489 L 100 77.942 L 100 54.848 Z" style="fill: rgb(216, 216, 216);" bx:shape="n-gon 120 66.395 23.094 23.094 6 0 1@f28a5dfa"/>
    <path d="M 170 43.302 L 190 54.849 L 190 77.943 L 170 89.49 L 150 77.943 L 150 54.849 Z" style="fill: rgb(216, 216, 216);" bx:shape="n-gon 170 66.396 23.094 23.094 6 0 1@96122d39"/>
    <path d="M 195 86.604 L 215 98.151 L 215 121.245 L 195 132.792 L 175 121.245 L 175 98.151 Z" style="fill: rgb(216, 216, 216);" bx:shape="n-gon 195 109.698 23.094 23.094 6 0 1@f27a4e65"/>
    <path d="M 95 86.603 L 115 98.15 L 115 121.244 L 95 132.791 L 75 121.244 L 75 98.15 Z" style="fill: rgb(216, 216, 216);" bx:shape="n-gon 95 109.697 23.094 23.094 6 0 1@acbebd8f"/>
    <path d="M 70 43.302 L 90 54.849 L 90 77.943 L 70 89.49 L 50 77.943 L 50 54.849 Z" style="fill: rgb(216, 216, 216);" bx:shape="n-gon 70 66.396 23.094 23.094 6 0 1@c3392ac0"/>
    <path d="M 45 0 L 65 11.547 L 65 34.641 L 45 46.188 L 25 34.641 L 25 11.547 Z" style="fill: rgb(216, 216, 216);" bx:shape="n-gon 45 23.094 23.094 23.094 6 0 1@732b0d91"/>
    <path d="M 20 43.301 L 40 54.848 L 40 77.942 L 20 89.489 L 0 77.942 L 0 54.848 Z" style="fill: rgb(216, 216, 216);" bx:shape="n-gon 20 66.395 23.094 23.094 6 0 1@92710a6b"/>
    <path d="M 245 86.604 L 265 98.151 L 265 121.245 L 245 132.792 L 225 121.245 L 225 98.151 Z" style="fill: rgb(216, 216, 216);" bx:shape="n-gon 245 109.698 23.094 23.094 6 0 1@1650a13f"/>
    <path d="M 345 86.604 L 365 98.151 L 365 121.245 L 345 132.792 L 325 121.245 L 325 98.151 Z" style="fill: rgb(216, 216, 216);" bx:shape="n-gon 345 109.698 23.094 23.094 6 0 1@23b6728a"/>
    <path d="M 370 43.302 L 390 54.849 L 390 77.943 L 370 89.49 L 350 77.943 L 350 54.849 Z" style="fill: rgb(216, 216, 216);" bx:shape="n-gon 370 66.396 23.094 23.094 6 0 1@44ac3577"/>
    <path d="M 395 86.604 L 415 98.151 L 415 121.245 L 395 132.792 L 375 121.245 L 375 98.151 Z" style="fill: rgb(216, 216, 216);" bx:shape="n-gon 395 109.698 23.094 23.094 6 0 1@6ab62213"/>
    <path d="M 420 43.302 L 440 54.849 L 440 77.943 L 420 89.49 L 400 77.943 L 400 54.849 Z" style="fill: rgb(216, 216, 216);" bx:shape="n-gon 420 66.396 23.094 23.094 6 0 1@0ff01623"/>
    <path d="M 320 43.301 L 340 54.848 L 340 77.942 L 320 89.489 L 300 77.942 L 300 54.848 Z" style="fill: rgb(216, 216, 216);" bx:shape="n-gon 320 66.395 23.094 23.094 6 0 1@26d16118"/>
    <path d="M 370 43.302 L 390 54.849 L 390 77.943 L 370 89.49 L 350 77.943 L 350 54.849 Z" style="fill: rgb(216, 216, 216);" bx:shape="n-gon 370 66.396 23.094 23.094 6 0 1@44ac3577"/>
    <path d="M 395 86.604 L 415 98.151 L 415 121.245 L 395 132.792 L 375 121.245 L 375 98.151 Z" style="fill: rgb(216, 216, 216);" bx:shape="n-gon 395 109.698 23.094 23.094 6 0 1@6ab62213"/>
    <path d="M 295 86.603 L 315 98.15 L 315 121.244 L 295 132.791 L 275 121.244 L 275 98.15 Z" style="fill: rgb(216, 216, 216);" bx:shape="n-gon 295 109.697 23.094 23.094 6 0 1@a6915af9"/>
    <path d="M 270 43.302 L 290 54.849 L 290 77.943 L 270 89.49 L 250 77.943 L 250 54.849 Z" style="fill: rgb(216, 216, 216);" bx:shape="n-gon 270 66.396 23.094 23.094 6 0 1@d4311d1c"/>
    <path d="M 195 0 L 215 11.547 L 215 34.641 L 195 46.188 L 175 34.641 L 175 11.547 Z" style="fill: rgb(216, 216, 216);" bx:shape="n-gon 195 23.094 23.094 23.094 6 0 1@1dabac01"/>
    <path d="M 145 0 L 165 11.547 L 165 34.641 L 145 46.188 L 125 34.641 L 125 11.547 Z" style="fill: rgb(216, 216, 216);" bx:shape="n-gon 145 23.094 23.094 23.094 6 0 1@f941ca48"/>
    <path d="M 95 0 L 115 11.547 L 115 34.641 L 95 46.188 L 75 34.641 L 75 11.547 Z" style="fill: rgb(216, 216, 216);" bx:shape="n-gon 95 23.094 23.094 23.094 6 0 1@a79b1c1a"/>
    <path d="M 395 0 L 415 11.547 L 415 34.641 L 395 46.188 L 375 34.641 L 375 11.547 Z" style="fill: rgb(216, 216, 216);" bx:shape="n-gon 395 23.094 23.094 23.094 6 0 1@3c7b2fa7"/>
    <path d="M 345 0 L 365 11.547 L 365 34.641 L 345 46.188 L 325 34.641 L 325 11.547 Z" style="fill: rgb(216, 216, 216);" bx:shape="n-gon 345 23.094 23.094 23.094 6 0 1@97842626"/>
    <path d="M 295 0 L 315 11.547 L 315 34.641 L 295 46.188 L 275 34.641 L 275 11.547 Z" style="fill: rgb(216, 216, 216);" bx:shape="n-gon 295 23.094 23.094 23.094 6 0 1@3937ba46"/>
    <path d="M 245 0 L 265 11.547 L 265 34.641 L 245 46.188 L 225 34.641 L 225 11.547 Z" style="fill: rgb(216, 216, 216);" bx:shape="n-gon 245 23.094 23.094 23.094 6 0 1@6590a97b"/>
  </g>
</svg>