<?xml version="1.0" encoding="utf-8"?>
<svg viewBox="0 0 460 420" xmlns="http://www.w3.org/2000/svg" xmlns:bx="https://boxy-svg.com">
  <defs>
    <bx:grid x="0" y="0" width="10" height="10"/>
  </defs>
  <g transform="matrix(1, 0, 0, 1, -260, 70)">
    <g transform="matrix(1, 0, 0, 1, 0, 10)">
      <rect x="280" y="180" width="80" height="20" style="fill: rgb(128, 64, 255);"/>
      <text style="fill: rgb(255, 255, 255); font-size: 12px; text-anchor: middle; white-space: pre;" x="319.936" y="194.152">controller</text>
    </g>
  </g>
  <g transform="matrix(1, 0, 0, 1, -260, 200)">
    <rect x="280" y="180" width="80" height="20" style="fill: rgb(64, 128, 255);"/>
    <text style="fill: rgb(51, 51, 51); font-size: 12px; white-space: pre; text-anchor: middle;" x="319.936" y="194.152">util</text>
  </g>
  <g transform="matrix(1, 0, 0, 1, -260, 160)">
    <rect x="280" y="180" width="80" height="20" style="fill: rgb(255, 64, 128);"/>
    <text style="fill: rgb(51, 51, 51); font-size: 12px; white-space: pre; text-anchor: middle;" x="319.936" y="194.152">model</text>
  </g>
  <g transform="matrix(1, 0, 0, 1, -260, 120)">
    <rect x="280" y="180" width="80" height="20" style="fill: rgb(64, 192, 255);"/>
    <text style="fill: rgb(51, 51, 51); font-size: 12px; white-space: pre; text-anchor: middle;" x="319.936" y="194.152">msg</text>
  </g>
  <g transform="matrix(1, 0, 0, 1, -260, 40)">
    <rect x="280" y="180" width="80" height="20" style="fill: rgb(255, 192, 64);"/>
    <text style="fill: rgb(51, 51, 51); font-size: 12px; white-space: pre; text-anchor: middle;" x="319.936" y="194.152">engine</text>
  </g>
  <g transform="matrix(1, 0, 0, 1, -343.614014, 54.779999)">
    <rect x="363.614" y="125.22" width="80" height="20" style="fill: rgb(255, 255, 0);"/>
    <text style="fill: rgb(51, 51, 51); font-size: 12px; white-space: pre; text-anchor: middle;" x="403.55" y="139.372">monitor</text>
  </g>
  <g transform="matrix(1, 0, 0, 1, -200, -30)">
    <rect x="220" y="90" width="80" height="20" style="fill: rgb(255, 0, 0);"/>
    <text style="fill: rgb(255, 255, 255); font-size: 12px; text-anchor: middle; white-space: pre;" x="259.936" y="104.152">cmd</text>
  </g>
  <g transform="matrix(1, 0, 0, 1, -277.381866, 46.095337)">
    <g transform="matrix(1, 0, 0, 1, 17.381866, -126.095337)">
      <rect x="280" y="180" width="80" height="20" style="fill: rgb(0, 255, 0);"/>
      <text style="fill: rgb(51, 51, 51); font-size: 12px; white-space: pre; text-anchor: middle;" x="319.936" y="194.152">api</text>
    </g>
  </g>
  <g transform="matrix(1, 0, 0, 1, -260, -40)">
    <rect x="280" y="180" width="80" height="20" style="fill: rgb(255, 0, 255);"/>
    <text style="fill: rgb(51, 51, 51); font-size: 12px; white-space: pre; text-anchor: middle;" x="319.936" y="194.152">cli</text>
  </g>
  <g transform="matrix(1, 0, 0, 1, -167.508041, -157.988907)">
    <g transform="matrix(1, 0, 0, 1, -92.491959, -2.011098)">
      <rect x="280" y="180" width="80" height="20" style="fill: rgb(0, 0, 255);"/>
      <text style="fill: rgb(255, 255, 255); font-size: 12px; text-anchor: middle; white-space: pre;" x="319.936" y="194.152">web</text>
    </g>
  </g>
  <path style="fill: rgb(216, 216, 216);" transform="matrix(0.635324, 0, 0, 0.493757, -45.743328, -1.97781)" d="M 699.848 300.176 A 234.041 234.041 0 1 1 465.807 66.135 L 465.807 66.135 A 234.041 234.041 0 1 0 699.848 300.176 Z" bx:shape="pie 465.807 300.176 234.041 234.041 90 360 1@5d5b7a6c"/>
  <path style="fill: rgb(216, 216, 216);" transform="matrix(0.635324, 0, 0, 0.45455, -45.743328, 53.808697)" d="M 745.039 543.67 A 96.799 96.799 0 1 1 648.24 446.871 L 648.24 446.871 A 96.799 96.799 0 1 0 745.039 543.67 Z" bx:shape="pie 648.24 543.67 96.799 96.799 90 360 1@addc63bc"/>
  <path style="fill: rgb(216, 216, 216); stroke: rgb(255, 0, 0);" d="M 220.03 109.97 C 220.03 131.278 212.042 149.818 199.388 163.677 C 203.061 159.578 206.398 154.999 209.319 149.94 C 216.335 137.787 220.03 124.003 220.03 109.97 Z M 115.566 186.124 C 103.772 182.379 92.718 175.856 83.504 166.556 C 88.303 171.31 93.84 175.576 100.119 179.201 C 105.171 182.117 110.344 184.413 115.566 186.124 Z M 70.859 149.94 C 74.483 156.218 78.749 161.756 83.504 166.556 C 74.203 157.341 67.68 146.286 63.935 134.493 C 65.647 139.715 67.942 144.888 70.859 149.94 Z M 160.811 187.228 C 175.58 183.204 189.043 175.004 199.388 163.677 C 188.723 175.574 175.221 183.424 160.811 187.228 Z M 160.811 187.228 C 146.411 191.152 130.77 191.106 115.566 186.124 C 130.207 190.772 145.989 191.14 160.811 187.228 Z M 63.935 134.493 C 61.269 126.358 60.017 118.098 60.03 109.97 L 60.149 109.97 C 60.149 118.256 61.411 126.542 63.935 134.493 Z" transform="matrix(0, -1, 1, 0, -9.969902, 290.029793)"/>
  <path style="fill: rgb(216, 216, 216); stroke: rgb(0, 0, 255);" d="M 159.388 50.493 C 159.388 61.057 155.428 70.248 149.154 77.119 C 150.975 75.087 152.63 72.817 154.078 70.309 C 157.556 64.284 159.388 57.45 159.388 50.493 Z M 107.598 88.248 C 101.751 86.391 96.271 83.157 91.702 78.546 C 94.082 80.903 96.827 83.018 99.94 84.815 C 102.444 86.261 105.009 87.399 107.598 88.248 Z M 85.434 70.309 C 87.23 73.421 89.345 76.167 91.702 78.546 C 87.091 73.978 83.858 68.497 82.001 62.65 C 82.85 65.24 83.987 67.804 85.434 70.309 Z M 130.029 88.795 C 137.351 86.8 144.026 82.735 149.154 77.119 C 143.867 83.017 137.173 86.909 130.029 88.795 Z M 130.029 88.795 C 122.89 90.74 115.136 90.718 107.598 88.248 C 114.857 90.552 122.681 90.734 130.029 88.795 Z M 82.001 62.65 C 80.679 58.617 80.059 54.522 80.065 50.493 L 80.124 50.493 C 80.124 54.601 80.75 58.709 82.001 62.65 Z" transform="matrix(0, -1, 1, 0, 49.387972, 190.064985)"/>
  <path style="fill: rgb(216, 216, 216); stroke: rgb(0, 0, 255);" d="M 129.381 40.5 C 129.381 45.737 127.417 50.294 124.307 53.7 C 125.21 52.692 126.03 51.567 126.748 50.324 C 128.472 47.337 129.381 43.949 129.381 40.5 Z M 103.707 59.217 C 100.808 58.296 98.091 56.693 95.826 54.407 C 97.006 55.576 98.367 56.624 99.91 57.515 C 101.152 58.232 102.423 58.796 103.707 59.217 Z M 92.719 50.324 C 93.609 51.867 94.658 53.228 95.826 54.407 C 93.541 52.143 91.938 49.426 91.017 46.527 C 91.438 47.811 92.002 49.082 92.719 50.324 Z M 114.826 59.488 C 118.456 58.499 121.765 56.484 124.307 53.7 C 121.686 56.624 118.368 58.553 114.826 59.488 Z M 114.826 59.488 C 111.287 60.452 107.443 60.441 103.707 59.217 C 107.305 60.359 111.184 60.449 114.826 59.488 Z M 91.017 46.527 C 90.362 44.528 90.055 42.498 90.058 40.5 L 90.087 40.5 C 90.087 42.537 90.397 44.573 91.017 46.527 Z" transform="matrix(0, -1, 1, 0, 59.381279, 160.057693)"/>
  <path style="fill: rgb(216, 216, 216); stroke: rgb(255, 0, 0);" d="M 130.008 79.992 C 130.008 85.319 128.011 89.955 124.847 93.419 C 125.766 92.395 126.6 91.25 127.33 89.985 C 129.084 86.946 130.008 83.5 130.008 79.992 Z M 103.892 99.031 C 100.943 98.095 98.18 96.464 95.876 94.139 C 97.076 95.328 98.46 96.394 100.03 97.3 C 101.293 98.03 102.586 98.604 103.892 99.031 Z M 92.715 89.985 C 93.621 91.555 94.688 92.939 95.876 94.139 C 93.551 91.835 91.92 89.072 90.984 86.123 C 91.412 87.428 91.986 88.722 92.715 89.985 Z M 115.203 99.307 C 118.895 98.301 122.261 96.251 124.847 93.419 C 122.181 96.394 118.806 98.356 115.203 99.307 Z M 115.203 99.307 C 111.603 100.288 107.693 100.277 103.892 99.031 C 107.552 100.193 111.498 100.285 115.203 99.307 Z M 90.984 86.123 C 90.318 84.089 90.005 82.024 90.008 79.992 L 90.038 79.992 C 90.038 82.064 90.353 84.135 90.984 86.123 Z" transform="matrix(0, -1, 1, 0, 20.00819, 200.007786)"/>
  <path style="fill: rgb(216, 216, 216); stroke: rgb(255, 0, 0);" d="M 159.558 89.984 C 159.558 100.638 155.564 109.91 149.236 116.838 C 151.074 114.79 152.742 112.5 154.202 109.97 C 157.71 103.892 159.558 97 159.558 89.984 Z M 107.326 128.062 C 101.428 126.19 95.902 122.928 91.294 118.278 C 93.694 120.656 96.462 122.788 99.602 124.6 C 102.128 126.06 104.714 127.208 107.326 128.062 Z M 84.972 109.97 C 86.784 113.11 88.918 115.878 91.294 118.278 C 86.644 113.67 83.382 108.144 81.51 102.246 C 82.366 104.856 83.514 107.444 84.972 109.97 Z M 129.948 128.614 C 137.332 126.602 144.064 122.502 149.236 116.838 C 143.904 122.788 137.154 126.712 129.948 128.614 Z M 129.948 128.614 C 122.748 130.576 114.928 130.554 107.326 128.062 C 114.646 130.386 122.538 130.57 129.948 128.614 Z M 81.51 102.246 C 80.178 98.178 79.552 94.048 79.558 89.984 L 79.618 89.984 C 79.618 94.128 80.248 98.27 81.51 102.246 Z" transform="matrix(0, -1, 1, 0, 9.558376, 229.557575)"/>
  <path style="fill: rgb(216, 216, 216); stroke: rgb(255, 0, 0);" d="M 189.564 99.976 C 189.564 115.957 183.573 129.865 174.081 140.257 C 176.838 137.185 179.34 133.75 181.53 129.955 C 186.792 120.838 189.564 110.5 189.564 99.976 Z M 111.216 157.093 C 102.369 154.285 94.08 149.392 87.168 142.417 C 90.768 145.984 94.92 149.182 99.63 151.9 C 103.419 154.09 107.298 155.812 111.216 157.093 Z M 77.685 129.955 C 80.403 134.665 83.604 138.817 87.168 142.417 C 80.193 135.505 75.3 127.216 72.492 118.369 C 73.776 122.284 75.498 126.166 77.685 129.955 Z M 145.149 157.921 C 156.225 154.903 166.323 148.753 174.081 140.257 C 166.083 149.182 155.958 155.068 145.149 157.921 Z M 145.149 157.921 C 134.349 160.864 122.619 160.831 111.216 157.093 C 122.196 160.579 134.034 160.855 145.149 157.921 Z M 72.492 118.369 C 70.494 112.267 69.555 106.072 69.564 99.976 L 69.654 99.976 C 69.654 106.192 70.599 112.405 72.492 118.369 Z" transform="matrix(0, -1, 1, 0, -0.435429, 259.563366)"/>
  <path style="fill: rgb(216, 216, 216); stroke: rgb(255, 0, 0);" d="M 279.927 129.953 C 279.927 161.916 267.946 189.732 248.962 210.516 C 254.475 204.372 259.479 197.501 263.859 189.912 C 274.383 171.677 279.927 151.001 279.927 129.953 Z M 123.232 244.188 C 105.537 238.572 88.96 228.785 75.136 214.836 C 82.336 221.969 90.64 228.365 100.06 233.801 C 107.637 238.181 115.396 241.625 123.232 244.188 Z M 56.169 189.912 C 61.605 199.332 68.008 207.636 75.136 214.836 C 61.185 201.012 51.4 184.433 45.784 166.74 C 48.352 174.569 51.796 182.333 56.169 189.912 Z M 191.098 245.844 C 213.25 239.808 233.446 227.508 248.962 210.516 C 232.966 228.365 212.715 240.137 191.098 245.844 Z M 191.098 245.844 C 169.498 251.729 146.038 251.664 123.232 244.188 C 145.191 251.16 168.867 251.712 191.098 245.844 Z M 45.784 166.74 C 41.788 154.536 39.909 142.145 39.928 129.953 L 40.108 129.953 C 40.108 142.385 41.997 154.812 45.784 166.74 Z" transform="matrix(0, -1, 1, 0, -30.072674, 349.92754)"/>
  <path style="fill: rgb(216, 216, 216); stroke: rgb(255, 0, 0);" d="M 339.603 149.937 C 339.603 192.555 323.628 229.643 298.316 257.355 C 305.667 249.163 312.339 240.001 318.179 229.883 C 332.211 205.569 339.603 178.001 339.603 149.937 Z M 130.676 302.251 C 107.083 294.763 84.98 281.714 66.548 263.115 C 76.148 272.626 87.22 281.154 99.78 288.402 C 109.883 294.242 120.228 298.834 130.676 302.251 Z M 41.258 229.883 C 48.506 242.443 57.044 253.515 66.548 263.115 C 47.946 244.683 34.9 222.577 27.412 198.987 C 30.836 209.425 35.428 219.777 41.258 229.883 Z M 221.164 304.459 C 250.7 296.411 277.628 280.011 298.316 257.355 C 276.988 281.154 249.987 296.85 221.164 304.459 Z M 221.164 304.459 C 192.364 312.306 161.084 312.219 130.676 302.251 C 159.955 311.547 191.523 312.283 221.164 304.459 Z M 27.412 198.987 C 22.084 182.715 19.578 166.193 19.604 149.937 L 19.844 149.937 C 19.844 166.513 22.362 183.083 27.412 198.987 Z" transform="matrix(0, -1, 1, 0, -50.396803, 409.603609)"/>
  <path d="M 185 143.804 L 190 153.804 L 180 153.804 L 185 143.804 Z" style="stroke-width: 0px; fill: rgb(136, 136, 136); stroke: rgb(255, 255, 255);" transform="matrix(0, -1, 1, 0, -53.804001, 255)" bx:shape="triangle 180 143.804 10 10 0.5 0 1@d5e8ad91"/>
  <path style="fill: rgb(216, 216, 216); stroke: rgb(0, 255, 0);" d="M 309.596 179.945 C 309.596 217.234 295.619 249.686 273.471 273.934 C 279.904 266.766 285.74 258.751 290.852 249.896 C 303.128 228.623 309.596 204.501 309.596 179.945 Z M 126.785 313.219 C 106.142 306.667 86.801 295.25 70.673 278.974 C 79.073 287.298 88.761 294.759 99.751 301.102 C 108.593 306.211 117.644 310.23 126.785 313.219 Z M 48.546 249.896 C 54.889 260.886 62.357 270.574 70.673 278.974 C 54.398 262.846 42.981 243.505 36.429 222.862 C 39.425 231.997 43.443 241.055 48.546 249.896 Z M 205.963 315.151 C 231.807 308.108 255.369 293.759 273.471 273.934 C 254.809 294.759 231.184 308.494 205.963 315.151 Z M 205.963 315.151 C 180.762 322.018 153.393 321.94 126.785 313.219 C 152.405 321.352 180.028 321.996 205.963 315.151 Z M 36.429 222.862 C 31.767 208.624 29.577 194.169 29.597 179.945 L 29.807 179.945 C 29.807 194.449 32.013 208.946 36.429 222.862 Z" transform="matrix(0, -1, 1, 0, -80.403503, 419.596375)"/>
  <path style="fill: rgb(216, 216, 216); stroke: rgb(0, 255, 0);" d="M 279.588 169.953 C 279.588 201.915 267.607 229.731 248.623 250.515 C 254.137 244.371 259.14 237.501 263.521 229.911 C 274.044 211.677 279.588 191.001 279.588 169.953 Z M 122.892 284.188 C 105.198 278.572 88.62 268.786 74.796 254.835 C 81.996 261.97 90.3 268.365 99.72 273.802 C 107.299 278.181 115.057 281.626 122.892 284.188 Z M 55.83 229.911 C 61.267 239.331 67.668 247.635 74.796 254.835 C 60.846 241.011 51.06 224.433 45.444 206.739 C 48.012 214.569 51.456 222.333 55.83 229.911 Z M 190.759 285.844 C 212.911 279.807 233.107 267.508 248.623 250.515 C 232.627 268.365 212.377 280.138 190.759 285.844 Z M 190.759 285.844 C 169.158 291.73 145.699 291.663 122.892 284.188 C 144.852 291.159 168.529 291.711 190.759 285.844 Z M 45.444 206.739 C 41.448 194.535 39.571 182.145 39.588 169.953 L 39.768 169.953 C 39.768 182.385 41.659 194.811 45.444 206.739 Z" transform="matrix(0, -1, 1, 0, -70.412174, 389.58807)"/>
  <path style="fill: rgb(216, 216, 216); stroke: rgb(0, 255, 0);" d="M 189.563 139.977 C 189.563 155.957 183.573 169.865 174.081 180.257 C 176.838 177.185 179.339 173.75 181.53 169.955 C 186.791 160.838 189.563 150.5 189.563 139.977 Z M 111.215 197.094 C 102.368 194.286 94.079 189.393 87.167 182.417 C 90.767 185.985 94.919 189.182 99.629 191.901 C 103.419 194.09 107.298 195.813 111.215 197.094 Z M 77.684 169.955 C 80.403 174.665 83.603 178.817 87.167 182.417 C 80.192 175.505 75.299 167.216 72.491 158.369 C 73.775 162.284 75.497 166.166 77.684 169.955 Z M 145.149 197.922 C 156.225 194.903 166.323 188.754 174.081 180.257 C 166.083 189.182 155.958 195.069 145.149 197.922 Z M 145.149 197.922 C 134.348 200.865 122.619 200.831 111.215 197.094 C 122.195 200.579 134.034 200.855 145.149 197.922 Z M 72.491 158.369 C 70.493 152.267 69.555 146.072 69.563 139.977 L 69.653 139.977 C 69.653 146.192 70.599 152.405 72.491 158.369 Z" transform="matrix(0, -1, 1, 0, -40.437252, 299.563206)"/>
  <path d="M 185 143.804 L 190 153.804 L 180 153.804 L 185 143.804 Z" style="stroke-width: 0px; fill: rgb(136, 136, 136); stroke: rgb(255, 255, 255);" transform="matrix(0, -1, 1, 0, -53.804001, 295)" bx:shape="triangle 180 143.804 10 10 0.5 0 1@d5e8ad91"/>
  <path style="fill: rgb(216, 216, 216); stroke: rgb(255, 0, 255);" d="M 279.587 209.951 C 279.587 241.913 267.611 269.73 248.627 290.514 C 254.14 284.371 259.139 277.501 263.525 269.911 C 274.044 251.676 279.587 231 279.587 209.951 Z M 122.889 324.187 C 105.199 318.57 88.622 308.784 74.798 294.835 C 81.997 301.969 90.302 308.365 99.722 313.801 C 107.3 318.181 115.058 321.625 122.889 324.187 Z M 55.831 269.911 C 61.266 279.331 67.669 287.634 74.798 294.835 C 60.847 281.01 51.061 264.432 45.444 246.738 C 48.012 254.568 51.456 262.331 55.831 269.911 Z M 190.762 325.844 C 212.914 319.807 233.11 307.507 248.627 290.514 C 232.63 308.365 212.379 320.137 190.762 325.844 Z M 190.762 325.844 C 169.155 331.729 145.7 331.663 122.889 324.187 C 144.848 331.16 168.531 331.711 190.762 325.844 Z M 45.444 246.738 C 41.448 234.533 39.57 222.142 39.588 209.951 L 39.768 209.951 C 39.768 222.383 41.658 234.809 45.444 246.738 Z" transform="matrix(0, -1, 1, 0, -110.411438, 429.586319)"/>
  <path style="fill: rgb(216, 216, 216); stroke: rgb(255, 0, 255);" d="M 249.918 199.961 C 249.918 226.596 239.938 249.777 224.118 267.097 C 228.712 261.978 232.878 256.253 236.533 249.928 C 245.299 234.732 249.918 217.502 249.918 199.961 Z M 119.336 295.157 C 104.595 290.477 90.781 282.322 79.261 270.697 C 85.26 276.642 92.181 281.972 100.031 286.502 C 106.346 290.152 112.811 293.022 119.336 295.157 Z M 63.455 249.928 C 67.984 257.778 73.32 264.697 79.261 270.697 C 67.635 259.177 59.48 245.362 54.799 230.617 C 56.939 237.142 59.809 243.611 63.455 249.928 Z M 175.897 296.538 C 194.357 291.507 211.187 281.257 224.118 267.097 C 210.787 281.972 193.911 291.782 175.897 296.538 Z M 175.897 296.538 C 157.891 301.442 138.346 301.387 119.336 295.157 C 137.636 300.968 157.371 301.427 175.897 296.538 Z M 54.799 230.617 C 51.469 220.446 49.904 210.12 49.919 199.961 L 50.069 199.961 C 50.069 210.321 51.644 220.676 54.799 230.617 Z" transform="matrix(0, -1, 1, 0, -100.08213, 399.919029)"/>
  <path style="fill: rgb(216, 216, 216); stroke: rgb(255, 0, 255);" d="M 159.555 169.985 C 159.555 180.638 155.563 189.911 149.235 196.839 C 151.072 194.791 152.739 192.502 154.201 189.971 C 157.708 183.893 159.555 177.001 159.555 169.985 Z M 107.322 208.063 C 101.426 206.191 95.901 202.929 91.293 198.279 C 93.692 200.657 96.461 202.789 99.601 204.601 C 102.126 206.061 104.713 207.209 107.322 208.063 Z M 84.97 189.971 C 86.782 193.111 88.917 195.879 91.293 198.279 C 86.642 193.671 83.381 188.145 81.508 182.247 C 82.364 184.857 83.512 187.445 84.97 189.971 Z M 129.947 208.615 C 137.331 206.603 144.063 202.503 149.235 196.839 C 143.903 202.789 137.153 206.713 129.947 208.615 Z M 129.947 208.615 C 122.745 210.577 114.926 210.555 107.322 208.063 C 114.642 210.387 122.537 210.571 129.947 208.615 Z M 81.508 182.247 C 80.176 178.178 79.55 174.048 79.556 169.985 L 79.616 169.985 C 79.616 174.129 80.246 178.27 81.508 182.247 Z" transform="matrix(0, -1, 1, 0, -70.445129, 309.556076)"/>
  <path d="M 185 143.804 L 190 153.804 L 180 153.804 L 185 143.804 Z" style="stroke-width: 0px; fill: rgb(136, 136, 136); stroke: rgb(255, 255, 255);" transform="matrix(0, -1, 1, 0, -53.804001, 335)" bx:shape="triangle 180 143.804 10 10 0.5 0 1@d5e8ad91"/>
  <path style="fill: rgb(216, 216, 216); stroke: rgb(255, 255, 0);" d="M 129.977 199.991 C 129.977 205.318 127.981 209.955 124.817 213.419 C 125.736 212.395 126.569 211.25 127.3 209.985 C 129.054 206.946 129.977 203.499 129.977 199.991 Z M 103.86 219.031 C 100.912 218.095 98.149 216.464 95.845 214.139 C 97.045 215.328 98.429 216.394 99.999 217.3 C 101.262 218.03 102.556 218.604 103.86 219.031 Z M 92.684 209.985 C 93.59 211.555 94.657 212.939 95.845 214.139 C 93.52 211.835 91.889 209.072 90.953 206.123 C 91.381 207.428 91.955 208.722 92.684 209.985 Z M 115.173 219.307 C 118.865 218.301 122.231 216.251 124.817 213.419 C 122.151 216.394 118.776 218.356 115.173 219.307 Z M 115.173 219.307 C 111.572 220.288 107.662 220.277 103.86 219.031 C 107.52 220.193 111.468 220.285 115.173 219.307 Z M 90.953 206.123 C 90.287 204.088 89.974 202.023 89.977 199.991 L 90.007 199.991 C 90.007 202.063 90.322 204.134 90.953 206.123 Z" transform="matrix(0, -1, 1, 0, -100.022308, 319.976288)"/>
  <path style="fill: rgb(216, 216, 216); stroke: rgb(255, 255, 0);" d="M 219.571 229.967 C 219.571 251.275 211.587 269.823 198.932 283.679 C 202.607 279.582 205.94 275.002 208.863 269.943 C 215.879 257.787 219.571 243.999 219.571 229.967 Z M 115.104 306.127 C 103.311 302.382 92.26 295.859 83.044 286.559 C 87.844 291.315 93.38 295.579 99.66 299.202 C 104.712 302.123 109.888 304.419 115.104 306.127 Z M 70.4 269.943 C 74.024 276.223 78.292 281.759 83.044 286.559 C 73.744 277.342 67.22 266.29 63.476 254.495 C 65.188 259.715 67.484 264.891 70.4 269.943 Z M 160.355 307.231 C 175.123 303.206 188.587 295.007 198.932 283.679 C 188.267 295.579 174.768 303.426 160.355 307.231 Z M 160.355 307.231 C 145.951 311.155 130.311 311.11 115.104 306.127 C 129.743 310.775 145.535 311.142 160.355 307.231 Z M 63.476 254.495 C 60.812 246.355 59.56 238.095 59.572 229.967 L 59.692 229.967 C 59.692 238.255 60.952 246.539 63.476 254.495 Z" transform="matrix(0, -1, 1, 0, -130.428566, 409.57148)"/>
  <path d="M 185 143.804 L 190 153.804 L 180 153.804 L 185 143.804 Z" style="stroke-width: 0px; fill: rgb(136, 136, 136); stroke: rgb(255, 255, 255);" transform="matrix(0, -1, 1, 0, -53.804001, 375)" bx:shape="triangle 180 143.804 10 10 0.5 0 1@d5e8ad91"/>
  <path style="fill: rgb(216, 216, 216); stroke: rgb(255, 192, 64);" d="M 159.556 249.983 C 159.556 260.637 155.564 269.911 149.235 276.839 C 151.074 274.791 152.74 272.501 154.202 269.971 C 157.71 263.893 159.556 256.999 159.556 249.983 Z M 107.321 288.063 C 101.425 286.191 95.899 282.929 91.291 278.279 C 93.691 280.657 96.459 282.789 99.599 284.601 C 102.125 286.061 104.713 287.209 107.321 288.063 Z M 84.969 269.971 C 86.781 273.111 88.915 275.879 91.291 278.279 C 86.641 273.671 83.379 268.145 81.507 262.247 C 82.363 264.857 83.511 267.445 84.969 269.971 Z M 129.947 288.615 C 137.331 286.603 144.063 282.503 149.235 276.839 C 143.903 282.789 137.153 286.713 129.947 288.615 Z M 129.947 288.615 C 122.745 290.577 114.925 290.555 107.321 288.063 C 114.641 290.387 122.537 290.571 129.947 288.615 Z M 81.507 262.247 C 80.175 258.177 79.549 254.047 79.555 249.983 L 79.615 249.983 C 79.615 254.127 80.245 258.269 81.507 262.247 Z" transform="matrix(0, -1, 1, 0, -150.444126, 389.55508)"/>
  <path style="fill: rgb(216, 216, 216); stroke: rgb(255, 192, 64);" d="M 129.547 239.991 C 129.547 245.318 127.551 249.955 124.386 253.419 C 125.306 252.395 126.139 251.25 126.87 249.985 C 128.624 246.946 129.547 243.499 129.547 239.991 Z M 103.429 259.031 C 100.481 258.095 97.718 256.464 95.414 254.139 C 96.614 255.328 97.998 256.394 99.568 257.3 C 100.831 258.03 102.125 258.604 103.429 259.031 Z M 92.253 249.985 C 93.159 251.555 94.226 252.939 95.414 254.139 C 93.089 251.835 91.458 249.072 90.522 246.123 C 90.95 247.428 91.524 248.722 92.253 249.985 Z M 114.742 259.307 C 118.434 258.301 121.8 256.251 124.386 253.419 C 121.72 256.394 118.345 258.356 114.742 259.307 Z M 114.742 259.307 C 111.141 260.288 107.231 260.277 103.429 259.031 C 107.089 260.193 111.037 260.285 114.742 259.307 Z M 90.522 246.123 C 89.856 244.088 89.543 242.023 89.546 239.991 L 89.576 239.991 C 89.576 242.063 89.891 244.134 90.522 246.123 Z" transform="matrix(0, -1, 1, 0, -140.452812, 359.545784)"/>
  <path d="M 185 143.804 L 190 153.804 L 180 153.804 L 185 143.804 Z" style="stroke-width: 0px; fill: rgb(136, 136, 136); stroke: rgb(255, 255, 255);" transform="matrix(0, -1, 1, 0, -53.804001, 415)" bx:shape="triangle 180 143.804 10 10 0.5 0 1@d5e8ad91"/>
  <path style="fill: rgb(216, 216, 216); stroke: rgb(255, 192, 64);" d="M 190.025 259.975 C 190.025 275.956 184.037 289.867 174.543 300.258 C 177.303 297.186 179.801 293.752 181.994 289.957 C 187.256 280.84 190.025 270.499 190.025 259.975 Z M 111.672 317.094 C 102.829 314.286 94.54 309.393 87.628 302.418 C 91.228 305.985 95.38 309.183 100.09 311.901 C 103.879 314.091 107.76 315.813 111.672 317.094 Z M 78.145 289.957 C 80.863 294.667 84.064 298.818 87.628 302.418 C 80.653 295.507 75.76 287.218 72.952 278.371 C 74.236 282.286 75.958 286.168 78.145 289.957 Z M 145.611 317.922 C 156.687 314.904 166.785 308.754 174.543 300.258 C 166.545 309.183 156.42 315.069 145.611 317.922 Z M 145.611 317.922 C 134.808 320.865 123.078 320.832 111.672 317.094 C 122.652 320.58 134.496 320.856 145.611 317.922 Z M 72.952 278.371 C 70.954 272.266 70.015 266.071 70.024 259.975 L 70.114 259.975 C 70.114 266.191 71.059 272.404 72.952 278.371 Z" transform="matrix(0, -1, 1, 0, -159.974937, 420.023872)"/>
  <path style="fill: rgb(216, 216, 216); stroke: rgb(255, 192, 64);" d="M 220.535 269.968 C 220.535 291.276 212.551 309.823 199.893 323.678 C 203.573 319.582 206.903 315.003 209.827 309.943 C 216.843 297.788 220.535 284 220.535 269.968 Z M 116.066 346.126 C 104.275 342.382 93.223 335.858 84.007 326.558 C 88.807 331.314 94.343 335.578 100.623 339.202 C 105.675 342.122 110.85 344.418 116.066 346.126 Z M 71.363 309.943 C 74.987 316.223 79.255 321.758 84.007 326.558 C 74.707 317.343 68.183 306.291 64.439 294.496 C 66.151 299.715 68.447 304.891 71.363 309.943 Z M 161.317 347.23 C 176.085 343.206 189.549 335.006 199.893 323.678 C 189.229 335.578 175.729 343.426 161.317 347.23 Z M 161.317 347.23 C 146.913 351.154 131.273 351.11 116.066 346.126 C 130.705 350.774 146.497 351.142 161.317 347.23 Z M 64.439 294.496 C 61.775 286.356 60.523 278.096 60.535 269.968 L 60.655 269.968 C 60.655 278.256 61.915 286.54 64.439 294.496 Z" transform="matrix(0, -1, 1, 0, -169.465237, 450.53516)"/>
  <path style="fill: rgb(216, 216, 216); stroke: rgb(128, 64, 255);" d="M 159.555 289.983 C 159.555 300.637 155.563 309.911 149.233 316.839 C 151.073 314.791 152.739 312.501 154.201 309.971 C 157.709 303.893 159.555 296.999 159.555 289.983 Z M 107.32 328.063 C 101.424 326.191 95.898 322.929 91.29 318.279 C 93.69 320.657 96.458 322.789 99.598 324.601 C 102.124 326.061 104.712 327.209 107.32 328.063 Z M 84.968 309.971 C 86.78 313.111 88.914 315.879 91.29 318.279 C 86.64 313.671 83.378 308.145 81.506 302.247 C 82.362 304.857 83.51 307.445 84.968 309.971 Z M 129.946 328.615 C 137.329 326.603 144.061 322.503 149.233 316.839 C 143.901 322.789 137.151 326.713 129.946 328.615 Z M 129.946 328.615 C 122.744 330.577 114.924 330.555 107.32 328.063 C 114.64 330.387 122.536 330.571 129.946 328.615 Z M 81.506 302.247 C 80.174 298.177 79.548 294.047 79.554 289.983 L 79.614 289.983 C 79.614 294.127 80.244 298.269 81.506 302.247 Z" transform="matrix(0, -1, 1, 0, -190.445129, 429.554077)"/>
  <path style="fill: rgb(216, 216, 216); stroke: rgb(128, 64, 255);" d="M 189.905 299.974 C 189.905 315.955 183.917 329.866 174.422 340.258 C 177.182 337.186 179.681 333.751 181.874 329.956 C 187.136 320.839 189.905 310.498 189.905 299.974 Z M 111.552 357.094 C 102.708 354.286 94.419 349.393 87.507 342.418 C 91.107 345.985 95.259 349.183 99.969 351.901 C 103.758 354.091 107.64 355.813 111.552 357.094 Z M 78.024 329.956 C 80.742 334.666 83.943 338.818 87.507 342.418 C 80.532 335.506 75.639 327.217 72.831 318.37 C 74.115 322.285 75.837 326.167 78.024 329.956 Z M 145.491 357.922 C 156.566 354.904 166.664 348.754 174.422 340.258 C 166.424 349.183 156.299 355.069 145.491 357.922 Z M 145.491 357.922 C 134.688 360.865 122.958 360.832 111.552 357.094 C 122.532 360.58 134.376 360.856 145.491 357.922 Z M 72.831 318.37 C 70.833 312.265 69.894 306.07 69.903 299.974 L 69.993 299.974 C 69.993 306.19 70.938 312.403 72.831 318.37 Z" transform="matrix(0, -1, 1, 0, -200.094933, 459.90287)"/>
  <path d="M 185 143.804 L 190 153.804 L 180 153.804 L 185 143.804 Z" style="stroke-width: 0px; fill: rgb(136, 136, 136); stroke: rgb(255, 255, 255);" transform="matrix(0, -1, 1, 0, -53.804001, 455)" bx:shape="triangle 180 143.804 10 10 0.5 0 1@d5e8ad91"/>
  <path style="fill: rgb(216, 216, 216); stroke: rgb(64, 192, 255);" d="M 129.546 319.992 C 129.546 325.319 127.55 329.955 124.385 333.419 C 125.305 332.395 126.138 331.25 126.869 329.985 C 128.623 326.947 129.546 323.5 129.546 319.992 Z M 103.429 339.031 C 100.481 338.095 97.718 336.464 95.414 334.139 C 96.614 335.328 97.998 336.394 99.568 337.3 C 100.831 338.03 102.125 338.604 103.429 339.031 Z M 92.253 329.985 C 93.159 331.555 94.226 332.939 95.414 334.139 C 93.089 331.835 91.458 329.073 90.522 326.124 C 90.95 327.429 91.524 328.723 92.253 329.985 Z M 114.742 339.307 C 118.433 338.301 121.799 336.251 124.385 333.419 C 121.719 336.394 118.344 338.356 114.742 339.307 Z M 114.742 339.307 C 111.141 340.288 107.231 340.277 103.429 339.031 C 107.089 340.193 111.037 340.285 114.742 339.307 Z M 90.522 326.124 C 89.856 324.089 89.543 322.024 89.546 319.992 L 89.576 319.992 C 89.576 322.064 89.891 324.135 90.522 326.124 Z" transform="matrix(0, -1, 1, 0, -220.453812, 439.545792)"/>
  <path style="fill: rgb(216, 216, 216); stroke: rgb(64, 192, 255);" d="M 159.554 329.984 C 159.554 340.638 155.562 349.91 149.232 356.838 C 151.072 354.79 152.738 352.5 154.2 349.97 C 157.708 343.894 159.554 337 159.554 329.984 Z M 107.32 368.062 C 101.424 366.19 95.898 362.928 91.29 358.278 C 93.69 360.656 96.458 362.788 99.598 364.6 C 102.124 366.06 104.712 367.208 107.32 368.062 Z M 84.968 349.97 C 86.78 353.11 88.914 355.878 91.29 358.278 C 86.64 353.67 83.378 348.146 81.506 342.248 C 82.362 344.858 83.51 347.446 84.968 349.97 Z M 129.946 368.614 C 137.328 366.602 144.06 362.502 149.232 356.838 C 143.9 362.788 137.15 366.712 129.946 368.614 Z M 129.946 368.614 C 122.744 370.576 114.924 370.554 107.32 368.062 C 114.64 370.386 122.536 370.57 129.946 368.614 Z M 81.506 342.248 C 80.174 338.178 79.548 334.048 79.554 329.984 L 79.614 329.984 C 79.614 334.128 80.244 338.27 81.506 342.248 Z" transform="matrix(0, -1, 1, 0, -230.445625, 469.553581)"/>
  <path d="M 185 143.804 L 190 153.804 L 180 153.804 L 185 143.804 Z" style="stroke-width: 0px; fill: rgb(136, 136, 136); stroke: rgb(255, 255, 255);" transform="matrix(0, -1, 1, 0, -53.804001, 575.111938)" bx:shape="triangle 180 143.804 10 10 0.5 0 1@d5e8ad91"/>
  <path d="M 185 143.804 L 190 153.804 L 180 153.804 L 185 143.804 Z" style="stroke-width: 0px; fill: rgb(136, 136, 136); stroke: rgb(255, 255, 255);" transform="matrix(0, -1, 1, 0, -53.804001, 535)" bx:shape="triangle 180 143.804 10 10 0.5 0 1@d5e8ad91"/>
  <path d="M 185 143.804 L 190 153.804 L 180 153.804 L 185 143.804 Z" style="stroke-width: 0px; fill: rgb(136, 136, 136); stroke: rgb(255, 255, 255);" transform="matrix(0, -1, 1, 0, -53.804001, 495)" bx:shape="triangle 180 143.804 10 10 0.5 0 1@d5e8ad91"/>
  <path style="fill: rgb(255, 64, 128); stroke: rgb(255, 64, 128);" d="M 129.546 359.992 C 129.546 365.319 127.55 369.955 124.385 373.419 C 125.305 372.395 126.138 371.25 126.869 369.985 C 128.623 366.947 129.546 363.5 129.546 359.992 Z M 103.429 379.031 C 100.481 378.095 97.718 376.464 95.414 374.139 C 96.614 375.328 97.998 376.394 99.568 377.3 C 100.831 378.03 102.125 378.604 103.429 379.031 Z M 92.253 369.985 C 93.159 371.555 94.226 372.939 95.414 374.139 C 93.089 371.835 91.458 369.073 90.522 366.124 C 90.95 367.429 91.524 368.723 92.253 369.985 Z M 114.742 379.307 C 118.433 378.301 121.799 376.251 124.385 373.419 C 121.719 376.394 118.344 378.356 114.742 379.307 Z M 114.742 379.307 C 111.141 380.288 107.231 380.277 103.429 379.031 C 107.089 380.193 111.037 380.285 114.742 379.307 Z M 90.522 366.124 C 89.856 364.089 89.543 362.024 89.546 359.992 L 89.576 359.992 C 89.576 362.064 89.891 364.135 90.522 366.124 Z" transform="matrix(0, -1, 1, 0, -260.453812, 479.545792)"/>
  <text style="fill: rgb(51, 51, 51); font-size: 12px; white-space: pre;" x="270.014" y="34.144">SOLAR web client</text>
  <text style="fill: rgb(51, 51, 51); font-size: 12px; white-space: pre;" x="270.014" y="74.145">SOLAR application</text>
  <text style="fill: rgb(51, 51, 51); font-size: 12px; white-space: pre;" x="270.014" y="114.144">SOLAR REST interface</text>
  <text style="fill: rgb(51, 51, 51); font-size: 12px; white-space: pre;" x="270.014" y="154.144">SOLAR command line interface</text>
  <text style="fill: rgb(51, 51, 51); font-size: 12px; white-space: pre;" x="270.014" y="194.144">SOLAR monitoring subsystem</text>
  <text style="fill: rgb(51, 51, 51); font-size: 12px; white-space: pre;" x="270.014" y="234.144">SOLAR orchestration engine</text>
  <text style="fill: rgb(51, 51, 51); font-size: 12px; white-space: pre;" x="270.014" y="274.144">SOLAR controller(s)</text>
  <text style="fill: rgb(51, 51, 51); font-size: 12px; white-space: pre;" x="270.014" y="314.143">SOLAR messaging subsystem</text>
  <text style="fill: rgb(51, 51, 51); font-size: 12px; white-space: pre;" x="270.005" y="354.143">SOLAR model repository</text>
  <text style="fill: rgb(51, 51, 51); font-size: 12px; white-space: pre;" x="270.011" y="394.141">SOLAR supporting functions</text>
  <path d="M 24.001 102 L 24.463 103.51 L 26.002 103.155 L 24.925 104.31 L 26.002 105.465 L 24.463 105.11 L 24.001 106.62 L 23.539 105.11 L 22 105.465 L 23.077 104.31 L 22 103.155 L 23.539 103.51 Z" style="stroke-width: 0px; fill: rgb(255, 255, 255);" bx:shape="star 24.001 104.31 2.31 2.31 0.4 6 1@8ab5708d"/>
  <path d="M 24.001 142 L 24.463 143.51 L 26.002 143.155 L 24.925 144.31 L 26.002 145.465 L 24.463 145.11 L 24.001 146.62 L 23.539 145.11 L 22 145.465 L 23.077 144.31 L 22 143.155 L 23.539 143.51 Z" style="stroke-width: 0px; fill: rgb(255, 255, 255);" bx:shape="star 24.001 144.31 2.31 2.31 0.4 6 1@84dab901"/>
  <path d="M 24.001 182 L 24.463 183.51 L 26.002 183.155 L 24.925 184.31 L 26.002 185.465 L 24.463 185.11 L 24.001 186.62 L 23.539 185.11 L 22 185.465 L 23.077 184.31 L 22 183.155 L 23.539 183.51 Z" style="stroke-width: 0px; fill: rgb(255, 255, 255);" bx:shape="star 24.001 184.31 2.31 2.31 0.4 6 1@b7531625"/>
  <path d="M 24.001 302 L 24.463 303.51 L 26.002 303.155 L 24.925 304.31 L 26.002 305.465 L 24.463 305.11 L 24.001 306.62 L 23.539 305.11 L 22 305.465 L 23.077 304.31 L 22 303.155 L 23.539 303.51 Z" style="stroke-width: 0px; fill: rgb(255, 255, 255);" bx:shape="star 24.001 304.31 2.31 2.31 0.4 6 1@a3543cd3"/>
</svg>