<?xml version="1.0" encoding="utf-8"?>
<svg viewBox="0 0 500 500" xmlns="http://www.w3.org/2000/svg" xmlns:bx="https://boxy-svg.com">
  <defs>
    <bx:grid x="0" y="0" width="10" height="10"/>
  </defs>
  <path d="M 107.528 -54.29 L 237.528 20.71 L 237.528 170.71 L 107.528 245.71 L -22.472 170.71 L -22.472 20.71 Z" style="fill: rgb(33, 55, 199); fill-opacity: 0.5; stroke-width: 0px;" transform="matrix(0, 1, -1, 0, 255.710007, 22.472)" bx:shape="n-gon 107.528 95.71 150.111 150 6 0 1@fe03b78b"/>
  <path d="M 107.528 49.556 L 147.528 72.633 L 147.528 118.787 L 107.528 141.864 L 67.528 118.787 L 67.528 72.633 Z" style="stroke-width: 0px; fill: rgb(241, 6, 6);" transform="matrix(0, 1, -1, 0, 333.6525, 67.471469)" bx:shape="n-gon 107.528 95.71 46.188 46.154 6 0 1@2f5c067a"/>
  <path d="M 160 83.846 L 200 106.923 L 200 153.077 L 160 176.154 L 120 153.077 L 120 106.923 Z" style="stroke-width: 0px; fill: rgb(241, 6, 6);" transform="matrix(0, 1, -1, 0, 290, -29.999996)" bx:shape="n-gon 160 130 46.188 46.154 6 0 1@0a9c7e9a"/>
  <path d="M 107.528 49.556 L 147.528 72.633 L 147.528 118.787 L 107.528 141.864 L 67.528 118.787 L 67.528 72.633 Z" style="stroke-width: 0px; fill: rgb(241, 6, 6);" transform="matrix(0, 1, -1, 0, 257.181549, 112.471741)" bx:shape="n-gon 107.528 95.71 46.188 46.154 6 0 1@2f5c067a"/>
  <path d="M 107.528 49.556 L 147.528 72.633 L 147.528 118.787 L 107.528 141.864 L 67.528 118.787 L 67.528 72.633 Z" style="stroke-width: 0px; fill: rgb(241, 6, 6);" transform="matrix(0, 1, -1, 0, 334.099735, -21.75396)" bx:shape="n-gon 107.528 95.71 46.188 46.154 6 0 1@2f5c067a"/>
  <path d="M 107.528 49.556 L 147.528 72.633 L 147.528 118.787 L 107.528 141.864 L 67.528 118.787 L 67.528 72.633 Z" style="stroke-width: 0px; fill: rgb(241, 6, 6);" transform="matrix(0, 1, -1, 0, 177.76804, -22.5283)" bx:shape="n-gon 107.528 95.71 46.188 46.154 6 0 1@2f5c067a"/>
  <path d="M 107.528 49.556 L 147.528 72.633 L 147.528 118.787 L 107.528 141.864 L 67.528 118.787 L 67.528 72.633 Z" style="stroke-width: 0px; fill: rgb(241, 6, 6);" transform="matrix(0, 1, -1, 0, 177.032535, 66.197677)" bx:shape="n-gon 107.528 95.71 46.188 46.154 6 0 1@2f5c067a"/>
  <path d="M 107.528 49.556 L 147.528 72.633 L 147.528 118.787 L 107.528 141.864 L 67.528 118.787 L 67.528 72.633 Z" style="stroke-width: 0px; fill: rgb(241, 6, 6);" transform="matrix(0, -1, 1, 0, 63.396313, 147.52774)" bx:shape="n-gon 107.528 95.71 46.188 46.154 6 0 1@2f5c067a"/>
  <path d="M 107.528 49.556 L 147.528 72.633 L 147.528 118.787 L 107.528 141.864 L 67.528 118.787 L 67.528 72.633 Z" style="stroke-width: 0px; fill: rgb(241, 6, 6);" transform="matrix(0, 1, -1, 0, 410.123474, 111.697433)" bx:shape="n-gon 107.528 95.71 46.188 46.154 6 0 1@2f5c067a"/>
  <path d="M 107.528 49.556 L 147.528 72.633 L 147.528 118.787 L 107.528 141.864 L 67.528 118.787 L 67.528 72.633 Z" style="stroke-width: 0px; fill: rgb(241, 6, 6);" transform="matrix(0, 1, -1, 0, 333.652527, 156.697693)" bx:shape="n-gon 107.528 95.71 46.188 46.154 6 0 1@2f5c067a"/>
  <path d="M 107.528 49.556 L 147.528 72.633 L 147.528 118.787 L 107.528 141.864 L 67.528 118.787 L 67.528 72.633 Z" style="stroke-width: 0px; fill: rgb(241, 6, 6);" transform="matrix(0, 1, -1, 0, 410.570679, 22.472)" bx:shape="n-gon 107.528 95.71 46.188 46.154 6 0 1@2f5c067a"/>
  <path d="M 107.528 49.556 L 147.528 72.633 L 147.528 118.787 L 107.528 141.864 L 67.528 118.787 L 67.528 72.633 Z" style="stroke-width: 0px; fill: rgb(241, 6, 6);" transform="matrix(0, 1, -1, 0, 486.594452, 156.696899)" bx:shape="n-gon 107.528 95.71 46.188 46.154 6 0 1@2f5c067a"/>
  <path d="M 107.528 49.556 L 147.528 72.633 L 147.528 118.787 L 107.528 141.864 L 67.528 118.787 L 67.528 72.633 Z" style="stroke-width: 0px; fill: rgb(241, 6, 6);" transform="matrix(0, 1, -1, 0, 410.123505, 201.697159)" bx:shape="n-gon 107.528 95.71 46.188 46.154 6 0 1@2f5c067a"/>
  <path d="M 107.528 49.556 L 147.528 72.633 L 147.528 118.787 L 107.528 141.864 L 67.528 118.787 L 67.528 72.633 Z" style="stroke-width: 0px; fill: rgb(241, 6, 6);" transform="matrix(0, 1, -1, 0, 487.041687, 67.471466)" bx:shape="n-gon 107.528 95.71 46.188 46.154 6 0 1@2f5c067a"/>
  <path d="M 107.528 49.556 L 147.528 72.633 L 147.528 118.787 L 107.528 141.864 L 67.528 118.787 L 67.528 72.633 Z" style="stroke-width: 0px; fill: rgb(241, 6, 6);" transform="matrix(0, 1, -1, 0, 257.181549, 201.697159)" bx:shape="n-gon 107.528 95.71 46.188 46.154 6 0 1@2f5c067a"/>
  <path d="M 107.528 49.556 L 147.528 72.633 L 147.528 118.787 L 107.528 141.864 L 67.528 118.787 L 67.528 72.633 Z" style="stroke-width: 0px; fill: rgb(241, 6, 6);" transform="matrix(0, 1, -1, 0, 177.032532, 156.697693)" bx:shape="n-gon 107.528 95.71 46.188 46.154 6 0 1@2f5c067a"/>
</svg>